M48
; DRILL file {KiCad 9.0.0} date 2026-04-09T13:24:00-0500
; FORMAT={-:-/ absolute / metric / decimal}
; #@! TF.CreationDate,2026-04-09T13:24:00-05:00
; #@! TF.GenerationSoftware,Kicad,Pcbnew,9.0.0
; #@! TF.FileFunction,MixedPlating,1,4
FMAT,2
METRIC
; #@! TA.AperFunction,Plated,PTH,ViaDrill
T1C0.300
; #@! TA.AperFunction,Plated,PTH,ComponentDrill
T2C0.300
; #@! TA.AperFunction,Plated,PTH,ComponentDrill
T3C1.000
; #@! TA.AperFunction,NonPlated,NPTH,ComponentDrill
T4C0.700
%
G90
G05
T1
X99.15Y-77.18
X99.72Y-87.44
X100.11Y-77.18
X101.15Y-89.06
X101.97Y-89.65
X102.81Y-77.25
X104.15Y-77.11
X105.29Y-89.04
X105.56Y-79.36
X105.59Y-87.69
X106.215Y-58.785
X106.84Y-73.86
X107.05Y-86.17
X108.29Y-90.06
X111.66Y-89.72
X111.68Y-88.59
X111.88Y-75.31
X111.93Y-73.89
X112.49Y-77.16
X112.67Y-87.09
X113.43Y-84.57
X113.96Y-87.11
X114.24Y-84.59
X115.03Y-87.09
X115.11Y-63.91
X115.12Y-84.59
X115.32Y-77.78
X115.95Y-84.59
X116.15Y-87.11
X117.44Y-88.46
X117.46Y-89.54
X118.13Y-80.92
X118.88Y-81.5
X119.11Y-75.27
X119.13Y-82.66
X119.13Y-84.01
X119.2Y-73.78
X123.086Y-86.52
X125.316Y-78.82
X125.95Y-79.74
X126.15Y-86.27
X126.16Y-60.2
X126.606Y-84.59
X128.466Y-88.05
X129.646Y-79.7
X129.816Y-80.63
X130.016Y-83.54
X130.046Y-76.87
X130.326Y-78.76
X131.501Y-78.795
X131.586Y-84.64
X133.096Y-87.91
X135.51Y-78.63
X135.716Y-86.01
X135.836Y-87.82
X136.546Y-85.99
X136.63Y-77.393
X136.685Y-76.595
X137.254Y-78.365
X137.48Y-84.795
X138.0Y-80.35
X140.32Y-61.28
T2
X98.35Y-61.61
X98.4Y-67.11
X99.95Y-61.61
X99.95Y-67.11
X127.086Y-81.585
X127.086Y-82.485
X127.486Y-82.035
X127.986Y-81.585
X127.986Y-82.485
X133.58Y-81.35
X133.58Y-81.9
X133.58Y-82.45
X134.13Y-81.35
X134.13Y-81.9
X134.13Y-82.45
X134.68Y-81.35
X134.68Y-81.9
X134.68Y-82.45
X138.34Y-79.36
X138.34Y-83.91
X138.99Y-79.36
X138.99Y-83.91
X139.64Y-79.36
X139.64Y-83.91
X140.29Y-79.36
X140.29Y-83.91
T3
X109.765Y-58.39
X112.305Y-58.39
X114.845Y-58.39
X130.96Y-58.4
X133.5Y-58.4
X136.04Y-58.4
X138.58Y-58.4
T4
X103.065Y-81.14
X103.065Y-86.92
M30
