%TF.GenerationSoftware,KiCad,Pcbnew,9.0.0*%
%TF.CreationDate,2026-04-09T13:23:58-05:00*%
%TF.ProjectId,LBClone,4c42436c-6f6e-4652-9e6b-696361645f70,rev?*%
%TF.SameCoordinates,Original*%
%TF.FileFunction,Legend,Top*%
%TF.FilePolarity,Positive*%
%FSLAX46Y46*%
G04 Gerber Fmt 4.6, Leading zero omitted, Abs format (unit mm)*
G04 Created by KiCad (PCBNEW 9.0.0) date 2026-04-09 13:23:58*
%MOMM*%
%LPD*%
G01*
G04 APERTURE LIST*
G04 Aperture macros list*
%AMRoundRect*
0 Rectangle with rounded corners*
0 $1 Rounding radius*
0 $2 $3 $4 $5 $6 $7 $8 $9 X,Y pos of 4 corners*
0 Add a 4 corners polygon primitive as box body*
4,1,4,$2,$3,$4,$5,$6,$7,$8,$9,$2,$3,0*
0 Add four circle primitives for the rounded corners*
1,1,$1+$1,$2,$3*
1,1,$1+$1,$4,$5*
1,1,$1+$1,$6,$7*
1,1,$1+$1,$8,$9*
0 Add four rect primitives between the rounded corners*
20,1,$1+$1,$2,$3,$4,$5,0*
20,1,$1+$1,$4,$5,$6,$7,0*
20,1,$1+$1,$6,$7,$8,$9,0*
20,1,$1+$1,$8,$9,$2,$3,0*%
G04 Aperture macros list end*
%ADD10C,0.150000*%
%ADD11C,0.100000*%
%ADD12C,0.120000*%
%ADD13C,0.152400*%
%ADD14C,0.000000*%
%ADD15C,0.127000*%
%ADD16C,0.200000*%
%ADD17C,0.010000*%
%ADD18RoundRect,0.250000X0.475000X-0.250000X0.475000X0.250000X-0.475000X0.250000X-0.475000X-0.250000X0*%
%ADD19RoundRect,0.140000X-0.140000X-0.170000X0.140000X-0.170000X0.140000X0.170000X-0.140000X0.170000X0*%
%ADD20RoundRect,0.100000X-0.130000X-0.100000X0.130000X-0.100000X0.130000X0.100000X-0.130000X0.100000X0*%
%ADD21RoundRect,0.135000X-0.135000X-0.185000X0.135000X-0.185000X0.135000X0.185000X-0.135000X0.185000X0*%
%ADD22R,2.200000X0.600000*%
%ADD23C,0.600000*%
%ADD24R,3.810000X1.000000*%
%ADD25R,0.254000X0.703200*%
%ADD26R,0.703200X0.254000*%
%ADD27R,1.498600X1.498600*%
%ADD28RoundRect,0.250000X-0.475000X0.250000X-0.475000X-0.250000X0.475000X-0.250000X0.475000X0.250000X0*%
%ADD29RoundRect,0.200000X-0.275000X0.200000X-0.275000X-0.200000X0.275000X-0.200000X0.275000X0.200000X0*%
%ADD30RoundRect,0.100000X0.130000X0.100000X-0.130000X0.100000X-0.130000X-0.100000X0.130000X-0.100000X0*%
%ADD31RoundRect,0.135000X-0.185000X0.135000X-0.185000X-0.135000X0.185000X-0.135000X0.185000X0.135000X0*%
%ADD32R,1.700000X1.700000*%
%ADD33O,1.700000X1.700000*%
%ADD34RoundRect,0.100000X0.100000X-0.130000X0.100000X0.130000X-0.100000X0.130000X-0.100000X-0.130000X0*%
%ADD35RoundRect,0.225000X0.225000X0.250000X-0.225000X0.250000X-0.225000X-0.250000X0.225000X-0.250000X0*%
%ADD36C,0.700000*%
%ADD37RoundRect,0.102000X-0.750000X0.750000X-0.750000X-0.750000X0.750000X-0.750000X0.750000X0.750000X0*%
%ADD38R,0.254000X0.711200*%
%ADD39R,0.711200X0.254000*%
%ADD40R,1.651000X1.651000*%
%ADD41RoundRect,0.200000X-0.200000X-0.275000X0.200000X-0.275000X0.200000X0.275000X-0.200000X0.275000X0*%
%ADD42RoundRect,0.135000X0.135000X0.185000X-0.135000X0.185000X-0.135000X-0.185000X0.135000X-0.185000X0*%
%ADD43RoundRect,0.102000X-1.750000X-0.750000X1.750000X-0.750000X1.750000X0.750000X-1.750000X0.750000X0*%
%ADD44RoundRect,0.100000X-0.100000X0.130000X-0.100000X-0.130000X0.100000X-0.130000X0.100000X0.130000X0*%
%ADD45R,0.600000X1.500000*%
%ADD46RoundRect,0.375000X-0.375000X0.625000X-0.375000X-0.625000X0.375000X-0.625000X0.375000X0.625000X0*%
%ADD47RoundRect,0.500000X-1.400000X0.500000X-1.400000X-0.500000X1.400000X-0.500000X1.400000X0.500000X0*%
%ADD48RoundRect,0.225000X0.250000X-0.225000X0.250000X0.225000X-0.250000X0.225000X-0.250000X-0.225000X0*%
%ADD49RoundRect,0.200000X0.275000X-0.200000X0.275000X0.200000X-0.275000X0.200000X-0.275000X-0.200000X0*%
G04 APERTURE END LIST*
D10*
X105158866Y-77503220D02*
X105158866Y-76741316D01*
X105539819Y-77122268D02*
X104777914Y-77122268D01*
X105444580Y-74169887D02*
X105492200Y-74217506D01*
X105492200Y-74217506D02*
X105539819Y-74360363D01*
X105539819Y-74360363D02*
X105539819Y-74455601D01*
X105539819Y-74455601D02*
X105492200Y-74598458D01*
X105492200Y-74598458D02*
X105396961Y-74693696D01*
X105396961Y-74693696D02*
X105301723Y-74741315D01*
X105301723Y-74741315D02*
X105111247Y-74788934D01*
X105111247Y-74788934D02*
X104968390Y-74788934D01*
X104968390Y-74788934D02*
X104777914Y-74741315D01*
X104777914Y-74741315D02*
X104682676Y-74693696D01*
X104682676Y-74693696D02*
X104587438Y-74598458D01*
X104587438Y-74598458D02*
X104539819Y-74455601D01*
X104539819Y-74455601D02*
X104539819Y-74360363D01*
X104539819Y-74360363D02*
X104587438Y-74217506D01*
X104587438Y-74217506D02*
X104635057Y-74169887D01*
X105539819Y-73217506D02*
X105539819Y-73788934D01*
X105539819Y-73503220D02*
X104539819Y-73503220D01*
X104539819Y-73503220D02*
X104682676Y-73598458D01*
X104682676Y-73598458D02*
X104777914Y-73693696D01*
X104777914Y-73693696D02*
X104825533Y-73788934D01*
X110543866Y-80805237D02*
X110543866Y-80043333D01*
X110924819Y-80424285D02*
X110162914Y-80424285D01*
X110829580Y-77471904D02*
X110877200Y-77519523D01*
X110877200Y-77519523D02*
X110924819Y-77662380D01*
X110924819Y-77662380D02*
X110924819Y-77757618D01*
X110924819Y-77757618D02*
X110877200Y-77900475D01*
X110877200Y-77900475D02*
X110781961Y-77995713D01*
X110781961Y-77995713D02*
X110686723Y-78043332D01*
X110686723Y-78043332D02*
X110496247Y-78090951D01*
X110496247Y-78090951D02*
X110353390Y-78090951D01*
X110353390Y-78090951D02*
X110162914Y-78043332D01*
X110162914Y-78043332D02*
X110067676Y-77995713D01*
X110067676Y-77995713D02*
X109972438Y-77900475D01*
X109972438Y-77900475D02*
X109924819Y-77757618D01*
X109924819Y-77757618D02*
X109924819Y-77662380D01*
X109924819Y-77662380D02*
X109972438Y-77519523D01*
X109972438Y-77519523D02*
X110020057Y-77471904D01*
X110924819Y-76519523D02*
X110924819Y-77090951D01*
X110924819Y-76805237D02*
X109924819Y-76805237D01*
X109924819Y-76805237D02*
X110067676Y-76900475D01*
X110067676Y-76900475D02*
X110162914Y-76995713D01*
X110162914Y-76995713D02*
X110210533Y-77090951D01*
X110924819Y-76043332D02*
X110924819Y-75852856D01*
X110924819Y-75852856D02*
X110877200Y-75757618D01*
X110877200Y-75757618D02*
X110829580Y-75709999D01*
X110829580Y-75709999D02*
X110686723Y-75614761D01*
X110686723Y-75614761D02*
X110496247Y-75567142D01*
X110496247Y-75567142D02*
X110115295Y-75567142D01*
X110115295Y-75567142D02*
X110020057Y-75614761D01*
X110020057Y-75614761D02*
X109972438Y-75662380D01*
X109972438Y-75662380D02*
X109924819Y-75757618D01*
X109924819Y-75757618D02*
X109924819Y-75948094D01*
X109924819Y-75948094D02*
X109972438Y-76043332D01*
X109972438Y-76043332D02*
X110020057Y-76090951D01*
X110020057Y-76090951D02*
X110115295Y-76138570D01*
X110115295Y-76138570D02*
X110353390Y-76138570D01*
X110353390Y-76138570D02*
X110448628Y-76090951D01*
X110448628Y-76090951D02*
X110496247Y-76043332D01*
X110496247Y-76043332D02*
X110543866Y-75948094D01*
X110543866Y-75948094D02*
X110543866Y-75757618D01*
X110543866Y-75757618D02*
X110496247Y-75662380D01*
X110496247Y-75662380D02*
X110448628Y-75614761D01*
X110448628Y-75614761D02*
X110353390Y-75567142D01*
X138197142Y-76029580D02*
X138149523Y-76077200D01*
X138149523Y-76077200D02*
X138006666Y-76124819D01*
X138006666Y-76124819D02*
X137911428Y-76124819D01*
X137911428Y-76124819D02*
X137768571Y-76077200D01*
X137768571Y-76077200D02*
X137673333Y-75981961D01*
X137673333Y-75981961D02*
X137625714Y-75886723D01*
X137625714Y-75886723D02*
X137578095Y-75696247D01*
X137578095Y-75696247D02*
X137578095Y-75553390D01*
X137578095Y-75553390D02*
X137625714Y-75362914D01*
X137625714Y-75362914D02*
X137673333Y-75267676D01*
X137673333Y-75267676D02*
X137768571Y-75172438D01*
X137768571Y-75172438D02*
X137911428Y-75124819D01*
X137911428Y-75124819D02*
X138006666Y-75124819D01*
X138006666Y-75124819D02*
X138149523Y-75172438D01*
X138149523Y-75172438D02*
X138197142Y-75220057D01*
X139149523Y-76124819D02*
X138578095Y-76124819D01*
X138863809Y-76124819D02*
X138863809Y-75124819D01*
X138863809Y-75124819D02*
X138768571Y-75267676D01*
X138768571Y-75267676D02*
X138673333Y-75362914D01*
X138673333Y-75362914D02*
X138578095Y-75410533D01*
X139768571Y-75124819D02*
X139863809Y-75124819D01*
X139863809Y-75124819D02*
X139959047Y-75172438D01*
X139959047Y-75172438D02*
X140006666Y-75220057D01*
X140006666Y-75220057D02*
X140054285Y-75315295D01*
X140054285Y-75315295D02*
X140101904Y-75505771D01*
X140101904Y-75505771D02*
X140101904Y-75743866D01*
X140101904Y-75743866D02*
X140054285Y-75934342D01*
X140054285Y-75934342D02*
X140006666Y-76029580D01*
X140006666Y-76029580D02*
X139959047Y-76077200D01*
X139959047Y-76077200D02*
X139863809Y-76124819D01*
X139863809Y-76124819D02*
X139768571Y-76124819D01*
X139768571Y-76124819D02*
X139673333Y-76077200D01*
X139673333Y-76077200D02*
X139625714Y-76029580D01*
X139625714Y-76029580D02*
X139578095Y-75934342D01*
X139578095Y-75934342D02*
X139530476Y-75743866D01*
X139530476Y-75743866D02*
X139530476Y-75505771D01*
X139530476Y-75505771D02*
X139578095Y-75315295D01*
X139578095Y-75315295D02*
X139625714Y-75220057D01*
X139625714Y-75220057D02*
X139673333Y-75172438D01*
X139673333Y-75172438D02*
X139768571Y-75124819D01*
X109328333Y-71689580D02*
X109280714Y-71737200D01*
X109280714Y-71737200D02*
X109137857Y-71784819D01*
X109137857Y-71784819D02*
X109042619Y-71784819D01*
X109042619Y-71784819D02*
X108899762Y-71737200D01*
X108899762Y-71737200D02*
X108804524Y-71641961D01*
X108804524Y-71641961D02*
X108756905Y-71546723D01*
X108756905Y-71546723D02*
X108709286Y-71356247D01*
X108709286Y-71356247D02*
X108709286Y-71213390D01*
X108709286Y-71213390D02*
X108756905Y-71022914D01*
X108756905Y-71022914D02*
X108804524Y-70927676D01*
X108804524Y-70927676D02*
X108899762Y-70832438D01*
X108899762Y-70832438D02*
X109042619Y-70784819D01*
X109042619Y-70784819D02*
X109137857Y-70784819D01*
X109137857Y-70784819D02*
X109280714Y-70832438D01*
X109280714Y-70832438D02*
X109328333Y-70880057D01*
X109661667Y-70784819D02*
X110328333Y-70784819D01*
X110328333Y-70784819D02*
X109899762Y-71784819D01*
D11*
X139956666Y-76337419D02*
X139956666Y-77051704D01*
X139956666Y-77051704D02*
X139909047Y-77194561D01*
X139909047Y-77194561D02*
X139813809Y-77289800D01*
X139813809Y-77289800D02*
X139670952Y-77337419D01*
X139670952Y-77337419D02*
X139575714Y-77337419D01*
X140956666Y-77337419D02*
X140385238Y-77337419D01*
X140670952Y-77337419D02*
X140670952Y-76337419D01*
X140670952Y-76337419D02*
X140575714Y-76480276D01*
X140575714Y-76480276D02*
X140480476Y-76575514D01*
X140480476Y-76575514D02*
X140385238Y-76623133D01*
D10*
X125245180Y-79468095D02*
X124435657Y-79468095D01*
X124435657Y-79468095D02*
X124340419Y-79515714D01*
X124340419Y-79515714D02*
X124292800Y-79563333D01*
X124292800Y-79563333D02*
X124245180Y-79658571D01*
X124245180Y-79658571D02*
X124245180Y-79849047D01*
X124245180Y-79849047D02*
X124292800Y-79944285D01*
X124292800Y-79944285D02*
X124340419Y-79991904D01*
X124340419Y-79991904D02*
X124435657Y-80039523D01*
X124435657Y-80039523D02*
X125245180Y-80039523D01*
X125149942Y-80468095D02*
X125197561Y-80515714D01*
X125197561Y-80515714D02*
X125245180Y-80610952D01*
X125245180Y-80610952D02*
X125245180Y-80849047D01*
X125245180Y-80849047D02*
X125197561Y-80944285D01*
X125197561Y-80944285D02*
X125149942Y-80991904D01*
X125149942Y-80991904D02*
X125054704Y-81039523D01*
X125054704Y-81039523D02*
X124959466Y-81039523D01*
X124959466Y-81039523D02*
X124816609Y-80991904D01*
X124816609Y-80991904D02*
X124245180Y-80420476D01*
X124245180Y-80420476D02*
X124245180Y-81039523D01*
X108536666Y-60624819D02*
X108536666Y-61339104D01*
X108536666Y-61339104D02*
X108489047Y-61481961D01*
X108489047Y-61481961D02*
X108393809Y-61577200D01*
X108393809Y-61577200D02*
X108250952Y-61624819D01*
X108250952Y-61624819D02*
X108155714Y-61624819D01*
X109441428Y-60958152D02*
X109441428Y-61624819D01*
X109203333Y-60577200D02*
X108965238Y-61291485D01*
X108965238Y-61291485D02*
X109584285Y-61291485D01*
X107244819Y-64882857D02*
X106768628Y-65216190D01*
X107244819Y-65454285D02*
X106244819Y-65454285D01*
X106244819Y-65454285D02*
X106244819Y-65073333D01*
X106244819Y-65073333D02*
X106292438Y-64978095D01*
X106292438Y-64978095D02*
X106340057Y-64930476D01*
X106340057Y-64930476D02*
X106435295Y-64882857D01*
X106435295Y-64882857D02*
X106578152Y-64882857D01*
X106578152Y-64882857D02*
X106673390Y-64930476D01*
X106673390Y-64930476D02*
X106721009Y-64978095D01*
X106721009Y-64978095D02*
X106768628Y-65073333D01*
X106768628Y-65073333D02*
X106768628Y-65454285D01*
X106340057Y-64501904D02*
X106292438Y-64454285D01*
X106292438Y-64454285D02*
X106244819Y-64359047D01*
X106244819Y-64359047D02*
X106244819Y-64120952D01*
X106244819Y-64120952D02*
X106292438Y-64025714D01*
X106292438Y-64025714D02*
X106340057Y-63978095D01*
X106340057Y-63978095D02*
X106435295Y-63930476D01*
X106435295Y-63930476D02*
X106530533Y-63930476D01*
X106530533Y-63930476D02*
X106673390Y-63978095D01*
X106673390Y-63978095D02*
X107244819Y-64549523D01*
X107244819Y-64549523D02*
X107244819Y-63930476D01*
X107244819Y-62978095D02*
X107244819Y-63549523D01*
X107244819Y-63263809D02*
X106244819Y-63263809D01*
X106244819Y-63263809D02*
X106387676Y-63359047D01*
X106387676Y-63359047D02*
X106482914Y-63454285D01*
X106482914Y-63454285D02*
X106530533Y-63549523D01*
X101066666Y-76044819D02*
X101066666Y-76759104D01*
X101066666Y-76759104D02*
X101019047Y-76901961D01*
X101019047Y-76901961D02*
X100923809Y-76997200D01*
X100923809Y-76997200D02*
X100780952Y-77044819D01*
X100780952Y-77044819D02*
X100685714Y-77044819D01*
X102019047Y-76044819D02*
X101542857Y-76044819D01*
X101542857Y-76044819D02*
X101495238Y-76521009D01*
X101495238Y-76521009D02*
X101542857Y-76473390D01*
X101542857Y-76473390D02*
X101638095Y-76425771D01*
X101638095Y-76425771D02*
X101876190Y-76425771D01*
X101876190Y-76425771D02*
X101971428Y-76473390D01*
X101971428Y-76473390D02*
X102019047Y-76521009D01*
X102019047Y-76521009D02*
X102066666Y-76616247D01*
X102066666Y-76616247D02*
X102066666Y-76854342D01*
X102066666Y-76854342D02*
X102019047Y-76949580D01*
X102019047Y-76949580D02*
X101971428Y-76997200D01*
X101971428Y-76997200D02*
X101876190Y-77044819D01*
X101876190Y-77044819D02*
X101638095Y-77044819D01*
X101638095Y-77044819D02*
X101542857Y-76997200D01*
X101542857Y-76997200D02*
X101495238Y-76949580D01*
X132094819Y-79441904D02*
X132904342Y-79441904D01*
X132904342Y-79441904D02*
X132999580Y-79394285D01*
X132999580Y-79394285D02*
X133047200Y-79346666D01*
X133047200Y-79346666D02*
X133094819Y-79251428D01*
X133094819Y-79251428D02*
X133094819Y-79060952D01*
X133094819Y-79060952D02*
X133047200Y-78965714D01*
X133047200Y-78965714D02*
X132999580Y-78918095D01*
X132999580Y-78918095D02*
X132904342Y-78870476D01*
X132904342Y-78870476D02*
X132094819Y-78870476D01*
X133094819Y-77870476D02*
X133094819Y-78441904D01*
X133094819Y-78156190D02*
X132094819Y-78156190D01*
X132094819Y-78156190D02*
X132237676Y-78251428D01*
X132237676Y-78251428D02*
X132332914Y-78346666D01*
X132332914Y-78346666D02*
X132380533Y-78441904D01*
X129149819Y-74347857D02*
X128673628Y-74681190D01*
X129149819Y-74919285D02*
X128149819Y-74919285D01*
X128149819Y-74919285D02*
X128149819Y-74538333D01*
X128149819Y-74538333D02*
X128197438Y-74443095D01*
X128197438Y-74443095D02*
X128245057Y-74395476D01*
X128245057Y-74395476D02*
X128340295Y-74347857D01*
X128340295Y-74347857D02*
X128483152Y-74347857D01*
X128483152Y-74347857D02*
X128578390Y-74395476D01*
X128578390Y-74395476D02*
X128626009Y-74443095D01*
X128626009Y-74443095D02*
X128673628Y-74538333D01*
X128673628Y-74538333D02*
X128673628Y-74919285D01*
X128245057Y-73966904D02*
X128197438Y-73919285D01*
X128197438Y-73919285D02*
X128149819Y-73824047D01*
X128149819Y-73824047D02*
X128149819Y-73585952D01*
X128149819Y-73585952D02*
X128197438Y-73490714D01*
X128197438Y-73490714D02*
X128245057Y-73443095D01*
X128245057Y-73443095D02*
X128340295Y-73395476D01*
X128340295Y-73395476D02*
X128435533Y-73395476D01*
X128435533Y-73395476D02*
X128578390Y-73443095D01*
X128578390Y-73443095D02*
X129149819Y-74014523D01*
X129149819Y-74014523D02*
X129149819Y-73395476D01*
X128149819Y-73062142D02*
X128149819Y-72443095D01*
X128149819Y-72443095D02*
X128530771Y-72776428D01*
X128530771Y-72776428D02*
X128530771Y-72633571D01*
X128530771Y-72633571D02*
X128578390Y-72538333D01*
X128578390Y-72538333D02*
X128626009Y-72490714D01*
X128626009Y-72490714D02*
X128721247Y-72443095D01*
X128721247Y-72443095D02*
X128959342Y-72443095D01*
X128959342Y-72443095D02*
X129054580Y-72490714D01*
X129054580Y-72490714D02*
X129102200Y-72538333D01*
X129102200Y-72538333D02*
X129149819Y-72633571D01*
X129149819Y-72633571D02*
X129149819Y-72919285D01*
X129149819Y-72919285D02*
X129102200Y-73014523D01*
X129102200Y-73014523D02*
X129054580Y-73062142D01*
X110497142Y-64574819D02*
X110163809Y-64098628D01*
X109925714Y-64574819D02*
X109925714Y-63574819D01*
X109925714Y-63574819D02*
X110306666Y-63574819D01*
X110306666Y-63574819D02*
X110401904Y-63622438D01*
X110401904Y-63622438D02*
X110449523Y-63670057D01*
X110449523Y-63670057D02*
X110497142Y-63765295D01*
X110497142Y-63765295D02*
X110497142Y-63908152D01*
X110497142Y-63908152D02*
X110449523Y-64003390D01*
X110449523Y-64003390D02*
X110401904Y-64051009D01*
X110401904Y-64051009D02*
X110306666Y-64098628D01*
X110306666Y-64098628D02*
X109925714Y-64098628D01*
X110878095Y-63670057D02*
X110925714Y-63622438D01*
X110925714Y-63622438D02*
X111020952Y-63574819D01*
X111020952Y-63574819D02*
X111259047Y-63574819D01*
X111259047Y-63574819D02*
X111354285Y-63622438D01*
X111354285Y-63622438D02*
X111401904Y-63670057D01*
X111401904Y-63670057D02*
X111449523Y-63765295D01*
X111449523Y-63765295D02*
X111449523Y-63860533D01*
X111449523Y-63860533D02*
X111401904Y-64003390D01*
X111401904Y-64003390D02*
X110830476Y-64574819D01*
X110830476Y-64574819D02*
X111449523Y-64574819D01*
X111830476Y-63670057D02*
X111878095Y-63622438D01*
X111878095Y-63622438D02*
X111973333Y-63574819D01*
X111973333Y-63574819D02*
X112211428Y-63574819D01*
X112211428Y-63574819D02*
X112306666Y-63622438D01*
X112306666Y-63622438D02*
X112354285Y-63670057D01*
X112354285Y-63670057D02*
X112401904Y-63765295D01*
X112401904Y-63765295D02*
X112401904Y-63860533D01*
X112401904Y-63860533D02*
X112354285Y-64003390D01*
X112354285Y-64003390D02*
X111782857Y-64574819D01*
X111782857Y-64574819D02*
X112401904Y-64574819D01*
X99316666Y-58434819D02*
X99316666Y-59149104D01*
X99316666Y-59149104D02*
X99269047Y-59291961D01*
X99269047Y-59291961D02*
X99173809Y-59387200D01*
X99173809Y-59387200D02*
X99030952Y-59434819D01*
X99030952Y-59434819D02*
X98935714Y-59434819D01*
X99745238Y-58530057D02*
X99792857Y-58482438D01*
X99792857Y-58482438D02*
X99888095Y-58434819D01*
X99888095Y-58434819D02*
X100126190Y-58434819D01*
X100126190Y-58434819D02*
X100221428Y-58482438D01*
X100221428Y-58482438D02*
X100269047Y-58530057D01*
X100269047Y-58530057D02*
X100316666Y-58625295D01*
X100316666Y-58625295D02*
X100316666Y-58720533D01*
X100316666Y-58720533D02*
X100269047Y-58863390D01*
X100269047Y-58863390D02*
X99697619Y-59434819D01*
X99697619Y-59434819D02*
X100316666Y-59434819D01*
X120524819Y-70751904D02*
X121334342Y-70751904D01*
X121334342Y-70751904D02*
X121429580Y-70704285D01*
X121429580Y-70704285D02*
X121477200Y-70656666D01*
X121477200Y-70656666D02*
X121524819Y-70561428D01*
X121524819Y-70561428D02*
X121524819Y-70370952D01*
X121524819Y-70370952D02*
X121477200Y-70275714D01*
X121477200Y-70275714D02*
X121429580Y-70228095D01*
X121429580Y-70228095D02*
X121334342Y-70180476D01*
X121334342Y-70180476D02*
X120524819Y-70180476D01*
X120524819Y-69799523D02*
X120524819Y-69180476D01*
X120524819Y-69180476D02*
X120905771Y-69513809D01*
X120905771Y-69513809D02*
X120905771Y-69370952D01*
X120905771Y-69370952D02*
X120953390Y-69275714D01*
X120953390Y-69275714D02*
X121001009Y-69228095D01*
X121001009Y-69228095D02*
X121096247Y-69180476D01*
X121096247Y-69180476D02*
X121334342Y-69180476D01*
X121334342Y-69180476D02*
X121429580Y-69228095D01*
X121429580Y-69228095D02*
X121477200Y-69275714D01*
X121477200Y-69275714D02*
X121524819Y-69370952D01*
X121524819Y-69370952D02*
X121524819Y-69656666D01*
X121524819Y-69656666D02*
X121477200Y-69751904D01*
X121477200Y-69751904D02*
X121429580Y-69799523D01*
X118524819Y-86661904D02*
X119334342Y-86661904D01*
X119334342Y-86661904D02*
X119429580Y-86614285D01*
X119429580Y-86614285D02*
X119477200Y-86566666D01*
X119477200Y-86566666D02*
X119524819Y-86471428D01*
X119524819Y-86471428D02*
X119524819Y-86280952D01*
X119524819Y-86280952D02*
X119477200Y-86185714D01*
X119477200Y-86185714D02*
X119429580Y-86138095D01*
X119429580Y-86138095D02*
X119334342Y-86090476D01*
X119334342Y-86090476D02*
X118524819Y-86090476D01*
X118858152Y-85185714D02*
X119524819Y-85185714D01*
X118477200Y-85423809D02*
X119191485Y-85661904D01*
X119191485Y-85661904D02*
X119191485Y-85042857D01*
D12*
%TO.C,+  C19*%
X111735000Y-79741252D02*
X111735000Y-79218748D01*
X113205000Y-79741252D02*
X113205000Y-79218748D01*
%TO.C,C10*%
X137532164Y-81260000D02*
X137747836Y-81260000D01*
X137532164Y-81980000D02*
X137747836Y-81980000D01*
%TO.C,C5*%
X136556359Y-79810000D02*
X136863641Y-79810000D01*
X136556359Y-80570000D02*
X136863641Y-80570000D01*
D13*
%TO.C,U2*%
X125910600Y-80409500D02*
X125910600Y-81075361D01*
X125910600Y-82994839D02*
X125910600Y-83660700D01*
X125910600Y-83660700D02*
X126576461Y-83660700D01*
X126576461Y-80409500D02*
X125910600Y-80409500D01*
X128495939Y-83660700D02*
X129161800Y-83660700D01*
X129161800Y-80409500D02*
X128495939Y-80409500D01*
X129161800Y-81075361D02*
X129161800Y-80409500D01*
X129161800Y-83660700D02*
X129161800Y-82994839D01*
D14*
G36*
X129796800Y-82725599D02*
G01*
X129542800Y-82725599D01*
X129542800Y-82344599D01*
X129796800Y-82344599D01*
X129796800Y-82725599D01*
G37*
D12*
%TO.C,C1*%
X106055000Y-75928748D02*
X106055000Y-76451252D01*
X107525000Y-75928748D02*
X107525000Y-76451252D01*
%TO.C,R8*%
X132573700Y-85662742D02*
X132573700Y-86137258D01*
X133618700Y-85662742D02*
X133618700Y-86137258D01*
%TO.C,R9*%
X134123700Y-86767742D02*
X134123700Y-87242258D01*
X135168700Y-86767742D02*
X135168700Y-87242258D01*
%TO.C,C9*%
X130722559Y-81170000D02*
X131029841Y-81170000D01*
X130722559Y-81930000D02*
X131029841Y-81930000D01*
%TO.C,C11*%
X135246200Y-84376359D02*
X135246200Y-84683641D01*
X136006200Y-84376359D02*
X136006200Y-84683641D01*
%TO.C,J4*%
X108435000Y-57060000D02*
X108435000Y-59720000D01*
X113575000Y-57060000D02*
X108435000Y-57060000D01*
X113575000Y-57060000D02*
X113575000Y-59720000D01*
X113575000Y-59720000D02*
X108435000Y-59720000D01*
X114845000Y-57060000D02*
X116175000Y-57060000D01*
X116175000Y-57060000D02*
X116175000Y-58390000D01*
%TO.C,C6*%
X136546359Y-78820000D02*
X136853641Y-78820000D01*
X136546359Y-79580000D02*
X136853641Y-79580000D01*
%TO.C,R21*%
X107877500Y-65492742D02*
X107877500Y-65967258D01*
X108922500Y-65492742D02*
X108922500Y-65967258D01*
%TO.C,J3*%
X129630000Y-59730000D02*
X129630000Y-58400000D01*
X130960000Y-59730000D02*
X129630000Y-59730000D01*
X132230000Y-57070000D02*
X139910000Y-57070000D01*
X132230000Y-59730000D02*
X132230000Y-57070000D01*
X132230000Y-59730000D02*
X139910000Y-59730000D01*
X139910000Y-59730000D02*
X139910000Y-57070000D01*
%TO.C,C17*%
X117215580Y-73270000D02*
X116934420Y-73270000D01*
X117215580Y-74290000D02*
X116934420Y-74290000D01*
D15*
%TO.C,J5*%
X96785000Y-79560000D02*
X98571500Y-79560000D01*
X96785000Y-88500000D02*
X98571500Y-88500000D01*
X102501500Y-79560000D02*
X100698500Y-79560000D01*
X102501500Y-88500000D02*
X100698500Y-88500000D01*
D16*
X105415000Y-80780000D02*
G75*
G02*
X105215000Y-80780000I-100000J0D01*
G01*
X105215000Y-80780000D02*
G75*
G02*
X105415000Y-80780000I100000J0D01*
G01*
D12*
%TO.C,R2*%
X127187500Y-60792742D02*
X127187500Y-61267258D01*
X128232500Y-60792742D02*
X128232500Y-61267258D01*
D13*
%TO.C,U1*%
X132504400Y-80274400D02*
X132504400Y-80690259D01*
X132504400Y-83109741D02*
X132504400Y-83525600D01*
X132504400Y-83525600D02*
X132920259Y-83525600D01*
X132920259Y-80274400D02*
X132504400Y-80274400D01*
X135339741Y-83525600D02*
X135755600Y-83525600D01*
X135755600Y-80274400D02*
X135339741Y-80274400D01*
X135755600Y-80690259D02*
X135755600Y-80274400D01*
X135755600Y-83525600D02*
X135755600Y-83109741D01*
D14*
G36*
X134570500Y-79944200D02*
G01*
X134189499Y-79944200D01*
X134189499Y-79690200D01*
X134570500Y-79690200D01*
X134570500Y-79944200D01*
G37*
D12*
%TO.C,R23*%
X128043700Y-76452742D02*
X128043700Y-76927258D01*
X129088700Y-76452742D02*
X129088700Y-76927258D01*
%TO.C,R7*%
X127953700Y-85897742D02*
X127953700Y-86372258D01*
X128998700Y-85897742D02*
X128998700Y-86372258D01*
%TO.C,R14*%
X119642742Y-57987500D02*
X120117258Y-57987500D01*
X119642742Y-59032500D02*
X120117258Y-59032500D01*
%TO.C,R22*%
X113252742Y-65407500D02*
X113727258Y-65407500D01*
X113252742Y-66452500D02*
X113727258Y-66452500D01*
%TO.C,C13*%
X131379841Y-79850000D02*
X131072559Y-79850000D01*
X131379841Y-80610000D02*
X131072559Y-80610000D01*
%TO.C,R10*%
X136296200Y-83166359D02*
X136296200Y-83473641D01*
X137056200Y-83166359D02*
X137056200Y-83473641D01*
%TO.C,C8*%
X130722559Y-82110000D02*
X131029841Y-82110000D01*
X130722559Y-82870000D02*
X131029841Y-82870000D01*
%TO.C,C4*%
X126973641Y-78350000D02*
X126666359Y-78350000D01*
X126973641Y-79110000D02*
X126666359Y-79110000D01*
%TO.C,R13*%
X106527500Y-88467742D02*
X106527500Y-88942258D01*
X107572500Y-88467742D02*
X107572500Y-88942258D01*
D16*
%TO.C,J2*%
X101750000Y-64310000D02*
G75*
G02*
X101550000Y-64310000I-100000J0D01*
G01*
X101550000Y-64310000D02*
G75*
G02*
X101750000Y-64310000I100000J0D01*
G01*
D13*
%TO.C,U3*%
X116418000Y-62453000D02*
X116418000Y-66607000D01*
X125322000Y-66607000D02*
X125322000Y-62453000D01*
D12*
%TO.C,U4*%
X111160000Y-84050000D02*
X111160000Y-87810000D01*
X111160000Y-87810000D02*
X112420000Y-87810000D01*
X117980000Y-84050000D02*
X117980000Y-87810000D01*
X117980000Y-87810000D02*
X116720000Y-87810000D01*
X118210000Y-83010000D02*
X117880000Y-82770000D01*
X118210000Y-82530000D01*
X118210000Y-83010000D01*
G36*
X118210000Y-83010000D02*
G01*
X117880000Y-82770000D01*
X118210000Y-82530000D01*
X118210000Y-83010000D01*
G37*
%TO.C,R4*%
X113837742Y-73267500D02*
X114312258Y-73267500D01*
X113837742Y-74312500D02*
X114312258Y-74312500D01*
%TO.C,C18*%
X114210580Y-74790000D02*
X113929420Y-74790000D01*
X114210580Y-75810000D02*
X113929420Y-75810000D01*
%TO.C,C3*%
X128792559Y-78400000D02*
X129099841Y-78400000D01*
X128792559Y-79160000D02*
X129099841Y-79160000D01*
%TO.C,C20*%
X114820000Y-80020580D02*
X114820000Y-79739420D01*
X115840000Y-80020580D02*
X115840000Y-79739420D01*
%TO.C,R3*%
X116832742Y-74767500D02*
X117307258Y-74767500D01*
X116832742Y-75812500D02*
X117307258Y-75812500D01*
%TO.C,C14*%
X131729841Y-83110000D02*
X131422559Y-83110000D01*
X131729841Y-83870000D02*
X131422559Y-83870000D01*
%TO.C,R1*%
X106437500Y-83872742D02*
X106437500Y-84347258D01*
X107482500Y-83872742D02*
X107482500Y-84347258D01*
%TO.C,R6*%
X122563700Y-84262742D02*
X122563700Y-84737258D01*
X123608700Y-84262742D02*
X123608700Y-84737258D01*
%TO.C,R5*%
X124403700Y-84732258D02*
X124403700Y-84257742D01*
X125448700Y-84732258D02*
X125448700Y-84257742D01*
%TD*%
%LPC*%
D17*
%TO.C,J5*%
X104765000Y-81180000D02*
X103515000Y-81180000D01*
X103515000Y-80480000D01*
X104765000Y-80480000D01*
X104765000Y-81180000D01*
G36*
X104765000Y-81180000D02*
G01*
X103515000Y-81180000D01*
X103515000Y-80480000D01*
X104765000Y-80480000D01*
X104765000Y-81180000D01*
G37*
X104765000Y-81980000D02*
X103515000Y-81980000D01*
X103515000Y-81280000D01*
X104765000Y-81280000D01*
X104765000Y-81980000D01*
G36*
X104765000Y-81980000D02*
G01*
X103515000Y-81980000D01*
X103515000Y-81280000D01*
X104765000Y-81280000D01*
X104765000Y-81980000D01*
G37*
X104765000Y-82480000D02*
X103515000Y-82480000D01*
X103515000Y-82080000D01*
X104765000Y-82080000D01*
X104765000Y-82480000D01*
G36*
X104765000Y-82480000D02*
G01*
X103515000Y-82480000D01*
X103515000Y-82080000D01*
X104765000Y-82080000D01*
X104765000Y-82480000D01*
G37*
X104765000Y-82980000D02*
X103515000Y-82980000D01*
X103515000Y-82580000D01*
X104765000Y-82580000D01*
X104765000Y-82980000D01*
G36*
X104765000Y-82980000D02*
G01*
X103515000Y-82980000D01*
X103515000Y-82580000D01*
X104765000Y-82580000D01*
X104765000Y-82980000D01*
G37*
X104765000Y-83480000D02*
X103515000Y-83480000D01*
X103515000Y-83080000D01*
X104765000Y-83080000D01*
X104765000Y-83480000D01*
G36*
X104765000Y-83480000D02*
G01*
X103515000Y-83480000D01*
X103515000Y-83080000D01*
X104765000Y-83080000D01*
X104765000Y-83480000D01*
G37*
X104765000Y-83980000D02*
X103515000Y-83980000D01*
X103515000Y-83580000D01*
X104765000Y-83580000D01*
X104765000Y-83980000D01*
G36*
X104765000Y-83980000D02*
G01*
X103515000Y-83980000D01*
X103515000Y-83580000D01*
X104765000Y-83580000D01*
X104765000Y-83980000D01*
G37*
X104765000Y-84480000D02*
X103515000Y-84480000D01*
X103515000Y-84080000D01*
X104765000Y-84080000D01*
X104765000Y-84480000D01*
G36*
X104765000Y-84480000D02*
G01*
X103515000Y-84480000D01*
X103515000Y-84080000D01*
X104765000Y-84080000D01*
X104765000Y-84480000D01*
G37*
X104765000Y-84980000D02*
X103515000Y-84980000D01*
X103515000Y-84580000D01*
X104765000Y-84580000D01*
X104765000Y-84980000D01*
G36*
X104765000Y-84980000D02*
G01*
X103515000Y-84980000D01*
X103515000Y-84580000D01*
X104765000Y-84580000D01*
X104765000Y-84980000D01*
G37*
X104765000Y-85480000D02*
X103515000Y-85480000D01*
X103515000Y-85080000D01*
X104765000Y-85080000D01*
X104765000Y-85480000D01*
G36*
X104765000Y-85480000D02*
G01*
X103515000Y-85480000D01*
X103515000Y-85080000D01*
X104765000Y-85080000D01*
X104765000Y-85480000D01*
G37*
X104765000Y-85980000D02*
X103515000Y-85980000D01*
X103515000Y-85580000D01*
X104765000Y-85580000D01*
X104765000Y-85980000D01*
G36*
X104765000Y-85980000D02*
G01*
X103515000Y-85980000D01*
X103515000Y-85580000D01*
X104765000Y-85580000D01*
X104765000Y-85980000D01*
G37*
X104765000Y-86780000D02*
X103515000Y-86780000D01*
X103515000Y-86080000D01*
X104765000Y-86080000D01*
X104765000Y-86780000D01*
G36*
X104765000Y-86780000D02*
G01*
X103515000Y-86780000D01*
X103515000Y-86080000D01*
X104765000Y-86080000D01*
X104765000Y-86780000D01*
G37*
X104765000Y-87580000D02*
X103515000Y-87580000D01*
X103515000Y-86880000D01*
X104765000Y-86880000D01*
X104765000Y-87580000D01*
G36*
X104765000Y-87580000D02*
G01*
X103515000Y-87580000D01*
X103515000Y-86880000D01*
X104765000Y-86880000D01*
X104765000Y-87580000D01*
G37*
%TD*%
D18*
%TO.C,+  C19*%
X112470000Y-80430000D03*
X112470000Y-78530000D03*
%TD*%
D19*
%TO.C,C10*%
X137160000Y-81620000D03*
X138120000Y-81620000D03*
%TD*%
D20*
%TO.C,C7*%
X109175000Y-72380000D03*
X109815000Y-72380000D03*
%TD*%
D21*
%TO.C,C5*%
X136200000Y-80190000D03*
X137220000Y-80190000D03*
%TD*%
D22*
%TO.C,J1*%
X140590000Y-81610000D03*
D23*
X138340000Y-79360000D03*
X138340000Y-83910000D03*
X138990000Y-79360000D03*
X138990000Y-83910000D03*
X139640000Y-79360000D03*
X139640000Y-83910000D03*
D24*
X139785000Y-79340000D03*
X139785000Y-83880000D03*
D23*
X140290000Y-79360000D03*
X140290000Y-83910000D03*
%TD*%
D25*
%TO.C,U2*%
X128036199Y-80634100D03*
X127536200Y-80634100D03*
X127036201Y-80634100D03*
D26*
X126135200Y-81535101D03*
X126135200Y-82035100D03*
X126135200Y-82535099D03*
D25*
X127036201Y-83436100D03*
X127536200Y-83436100D03*
X128036199Y-83436100D03*
D26*
X128937200Y-82535099D03*
X128937200Y-82035100D03*
X128937200Y-81535101D03*
D27*
X127536200Y-82035100D03*
%TD*%
D28*
%TO.C,C1*%
X106790000Y-75240000D03*
X106790000Y-77140000D03*
%TD*%
D29*
%TO.C,R8*%
X133096200Y-85075000D03*
X133096200Y-86725000D03*
%TD*%
%TO.C,R9*%
X134646200Y-86180000D03*
X134646200Y-87830000D03*
%TD*%
D21*
%TO.C,C9*%
X130366200Y-81550000D03*
X131386200Y-81550000D03*
%TD*%
D30*
%TO.C,C15*%
X127346200Y-79730000D03*
X126706200Y-79730000D03*
%TD*%
D31*
%TO.C,C11*%
X135626200Y-84020000D03*
X135626200Y-85040000D03*
%TD*%
D32*
%TO.C,J4*%
X114845000Y-58390000D03*
D33*
X112305000Y-58390000D03*
X109765000Y-58390000D03*
%TD*%
D21*
%TO.C,C6*%
X136190000Y-79200000D03*
X137210000Y-79200000D03*
%TD*%
D29*
%TO.C,R21*%
X108400000Y-64905000D03*
X108400000Y-66555000D03*
%TD*%
D34*
%TO.C,C2*%
X115760000Y-65265000D03*
X115760000Y-64625000D03*
%TD*%
D32*
%TO.C,J3*%
X130960000Y-58400000D03*
D33*
X133500000Y-58400000D03*
X136040000Y-58400000D03*
X138580000Y-58400000D03*
%TD*%
D20*
%TO.C,R12*%
X134940000Y-77770000D03*
X135580000Y-77770000D03*
%TD*%
D35*
%TO.C,C17*%
X117850000Y-73780000D03*
X116300000Y-73780000D03*
%TD*%
D36*
%TO.C,J5*%
X103065000Y-81140000D03*
X103065000Y-86920000D03*
D37*
X103565000Y-78910000D03*
X103565000Y-89150000D03*
X99635000Y-78910000D03*
X99635000Y-89150000D03*
%TD*%
D29*
%TO.C,R2*%
X127710000Y-60205000D03*
X127710000Y-61855000D03*
%TD*%
D38*
%TO.C,U1*%
X133379999Y-83246200D03*
X133880000Y-83246200D03*
X134380000Y-83246200D03*
X134880001Y-83246200D03*
D39*
X135476200Y-82650001D03*
X135476200Y-82150000D03*
X135476200Y-81650000D03*
X135476200Y-81149999D03*
D38*
X134880001Y-80553800D03*
X134380000Y-80553800D03*
X133880000Y-80553800D03*
X133379999Y-80553800D03*
D39*
X132783800Y-81149999D03*
X132783800Y-81650000D03*
X132783800Y-82150000D03*
X132783800Y-82650001D03*
D40*
X134130000Y-81900000D03*
%TD*%
D29*
%TO.C,R23*%
X128566200Y-75865000D03*
X128566200Y-77515000D03*
%TD*%
%TO.C,R7*%
X128476200Y-85310000D03*
X128476200Y-86960000D03*
%TD*%
D41*
%TO.C,R14*%
X119055000Y-58510000D03*
X120705000Y-58510000D03*
%TD*%
%TO.C,R22*%
X112665000Y-65930000D03*
X114315000Y-65930000D03*
%TD*%
D42*
%TO.C,C13*%
X131736200Y-80230000D03*
X130716200Y-80230000D03*
%TD*%
D31*
%TO.C,R10*%
X136676200Y-82810000D03*
X136676200Y-83830000D03*
%TD*%
D21*
%TO.C,C8*%
X130366200Y-82490000D03*
X131386200Y-82490000D03*
%TD*%
D42*
%TO.C,C4*%
X127330000Y-78730000D03*
X126310000Y-78730000D03*
%TD*%
D29*
%TO.C,R13*%
X107050000Y-87880000D03*
X107050000Y-89530000D03*
%TD*%
D43*
%TO.C,J2*%
X99250000Y-64310000D03*
D23*
X98350000Y-61610000D03*
X98400000Y-67110000D03*
D43*
X99250000Y-61610000D03*
X99250000Y-67010000D03*
D23*
X99950000Y-61610000D03*
X99950000Y-67110000D03*
%TD*%
D44*
%TO.C,C12*%
X136546200Y-84660000D03*
X136546200Y-85300000D03*
%TD*%
D45*
%TO.C,U3*%
X117060000Y-67230000D03*
X118330000Y-67230000D03*
X119600000Y-67230000D03*
X120870000Y-67230000D03*
X122140000Y-67230000D03*
X123410000Y-67230000D03*
X124680000Y-67230000D03*
X124680000Y-61830000D03*
X123410000Y-61830000D03*
X122140000Y-61830000D03*
X120870000Y-61830000D03*
X119600000Y-61830000D03*
X118330000Y-61830000D03*
X117060000Y-61830000D03*
%TD*%
D20*
%TO.C,C16*%
X128396200Y-79700000D03*
X129036200Y-79700000D03*
%TD*%
D46*
%TO.C,U4*%
X116870000Y-82750000D03*
X114570000Y-82750000D03*
D47*
X114570000Y-89050000D03*
D46*
X112270000Y-82750000D03*
%TD*%
D41*
%TO.C,R4*%
X113250000Y-73790000D03*
X114900000Y-73790000D03*
%TD*%
D35*
%TO.C,C18*%
X114845000Y-75300000D03*
X113295000Y-75300000D03*
%TD*%
D21*
%TO.C,C3*%
X128436200Y-78780000D03*
X129456200Y-78780000D03*
%TD*%
D48*
%TO.C,C20*%
X115330000Y-80655000D03*
X115330000Y-79105000D03*
%TD*%
D41*
%TO.C,R3*%
X116245000Y-75290000D03*
X117895000Y-75290000D03*
%TD*%
D42*
%TO.C,C14*%
X132086200Y-83490000D03*
X131066200Y-83490000D03*
%TD*%
D29*
%TO.C,R1*%
X106960000Y-83285000D03*
X106960000Y-84935000D03*
%TD*%
%TO.C,R6*%
X123086200Y-83675000D03*
X123086200Y-85325000D03*
%TD*%
D49*
%TO.C,R5*%
X124926200Y-85320000D03*
X124926200Y-83670000D03*
%TD*%
D30*
%TO.C,R11*%
X135595000Y-76770000D03*
X134955000Y-76770000D03*
%TD*%
%LPD*%
M02*
