%TF.GenerationSoftware,KiCad,Pcbnew,9.0.0*%
%TF.CreationDate,2026-04-09T13:23:57-05:00*%
%TF.ProjectId,LBClone,4c42436c-6f6e-4652-9e6b-696361645f70,rev?*%
%TF.SameCoordinates,Original*%
%TF.FileFunction,Copper,L4,Bot*%
%TF.FilePolarity,Positive*%
%FSLAX46Y46*%
G04 Gerber Fmt 4.6, Leading zero omitted, Abs format (unit mm)*
G04 Created by KiCad (PCBNEW 9.0.0) date 2026-04-09 13:23:57*
%MOMM*%
%LPD*%
G01*
G04 APERTURE LIST*
%TA.AperFunction,ComponentPad*%
%ADD10C,0.600000*%
%TD*%
%TA.AperFunction,SMDPad,CuDef*%
%ADD11R,3.810000X1.000000*%
%TD*%
%TA.AperFunction,ComponentPad*%
%ADD12R,1.700000X1.700000*%
%TD*%
%TA.AperFunction,ComponentPad*%
%ADD13O,1.700000X1.700000*%
%TD*%
%TA.AperFunction,SMDPad,CuDef*%
%ADD14R,3.500000X1.500000*%
%TD*%
%TA.AperFunction,ViaPad*%
%ADD15C,0.600000*%
%TD*%
G04 APERTURE END LIST*
D10*
%TO.P,J1,2,Ext*%
%TO.N,GND*%
X138340000Y-79360000D03*
X138340000Y-83910000D03*
X138990000Y-79360000D03*
X138990000Y-83910000D03*
X139640000Y-79360000D03*
X139640000Y-83910000D03*
D11*
X139785000Y-83880000D03*
X139790000Y-79340000D03*
D10*
X140290000Y-79360000D03*
X140290000Y-83910000D03*
%TD*%
%TO.P,U2,13,EPAD*%
%TO.N,GND*%
X127986200Y-81585100D03*
X127086200Y-81585100D03*
X127486200Y-82035100D03*
X127986200Y-82485100D03*
X127086200Y-82485100D03*
%TD*%
D12*
%TO.P,J4,1,Pin_1*%
%TO.N,Net-(J4-Pin_1)*%
X114845000Y-58390000D03*
D13*
%TO.P,J4,2,Pin_2*%
%TO.N,3.3V*%
X112305000Y-58390000D03*
%TO.P,J4,3,Pin_3*%
%TO.N,GND*%
X109765000Y-58390000D03*
%TD*%
D12*
%TO.P,J3,1,Pin_1*%
%TO.N,/SCL*%
X130960000Y-58400000D03*
D13*
%TO.P,J3,2,Pin_2*%
%TO.N,/SDA*%
X133500000Y-58400000D03*
%TO.P,J3,3,Pin_3*%
%TO.N,/CSEL*%
X136040000Y-58400000D03*
%TO.P,J3,4,Pin_4*%
%TO.N,GND*%
X138580000Y-58400000D03*
%TD*%
D10*
%TO.P,U1,17,EPAD*%
%TO.N,GND*%
X133580000Y-82450000D03*
X134130000Y-82450000D03*
X134680000Y-82450000D03*
X133580000Y-81900000D03*
X134130000Y-81900000D03*
X134680000Y-81900000D03*
X133580000Y-81350000D03*
X134130000Y-81350000D03*
X134680000Y-81350000D03*
%TD*%
%TO.P,J2,2,Ext*%
%TO.N,GND*%
X98350000Y-61610000D03*
X98400000Y-67110000D03*
D14*
X99250000Y-61610000D03*
X99250000Y-67010000D03*
D10*
X99950000Y-61610000D03*
X99950000Y-67110000D03*
%TD*%
D15*
%TO.N,GND*%
X105560000Y-79360000D03*
X128466200Y-88050000D03*
X130016200Y-83540000D03*
X111880000Y-75310000D03*
X105590000Y-87690000D03*
X135836200Y-87820000D03*
X104150000Y-77110000D03*
X118130000Y-80920000D03*
X129646200Y-79700000D03*
X112490000Y-77160000D03*
X129816200Y-80630000D03*
X101970000Y-89650000D03*
X125950000Y-79740000D03*
X108290000Y-90060000D03*
X99150000Y-77180000D03*
X105290000Y-89040000D03*
X107050000Y-86170000D03*
X138000000Y-80350000D03*
X140320000Y-61280000D03*
X123086200Y-86520000D03*
X106215000Y-58785000D03*
X102810000Y-77250000D03*
X125316200Y-78820000D03*
X135716200Y-86010000D03*
X130326200Y-78760000D03*
X99720000Y-87440000D03*
X106840000Y-73860000D03*
X101150000Y-89060000D03*
X115110000Y-63910000D03*
X119130000Y-84010000D03*
X115320000Y-77780000D03*
X100110000Y-77180000D03*
X118880000Y-81500000D03*
X136546200Y-85990000D03*
X119130000Y-82660000D03*
X137253800Y-78364900D03*
X111930000Y-73890000D03*
X136629966Y-77393108D03*
%TO.N,3.3V*%
X116150000Y-87110000D03*
X131501200Y-78795000D03*
X136685000Y-76595000D03*
X113430000Y-84570000D03*
X119200000Y-73780000D03*
X126160000Y-60200000D03*
X117460000Y-89540000D03*
X126150000Y-86270000D03*
X114240000Y-84590000D03*
X119110000Y-75270000D03*
X131586200Y-84640000D03*
X115120000Y-84590000D03*
X135510000Y-78630000D03*
X115030000Y-87090000D03*
X112670000Y-87090000D03*
X111680000Y-88590000D03*
X111660000Y-89720000D03*
X126606200Y-84590000D03*
X133096200Y-87910000D03*
X117440000Y-88460000D03*
X137480000Y-84794900D03*
X115950000Y-84590000D03*
X130046200Y-76870000D03*
X113960000Y-87110000D03*
%TD*%
%TA.AperFunction,Conductor*%
%TO.N,GND*%
G36*
X141698691Y-56399407D02*
G01*
X141734655Y-56448907D01*
X141739500Y-56479500D01*
X141739500Y-90840500D01*
X141720593Y-90898691D01*
X141671093Y-90934655D01*
X141640500Y-90939500D01*
X97119500Y-90939500D01*
X97061309Y-90920593D01*
X97025345Y-90871093D01*
X97020500Y-90840500D01*
X97020500Y-89654108D01*
X111159500Y-89654108D01*
X111159500Y-89785892D01*
X111175958Y-89847314D01*
X111193609Y-89913190D01*
X111259496Y-90027309D01*
X111259498Y-90027311D01*
X111259500Y-90027314D01*
X111352686Y-90120500D01*
X111352688Y-90120501D01*
X111352690Y-90120503D01*
X111466810Y-90186390D01*
X111466808Y-90186390D01*
X111466812Y-90186391D01*
X111466814Y-90186392D01*
X111594108Y-90220500D01*
X111594110Y-90220500D01*
X111725890Y-90220500D01*
X111725892Y-90220500D01*
X111853186Y-90186392D01*
X111853188Y-90186390D01*
X111853190Y-90186390D01*
X111967309Y-90120503D01*
X111967309Y-90120502D01*
X111967314Y-90120500D01*
X112060500Y-90027314D01*
X112060503Y-90027309D01*
X112126390Y-89913190D01*
X112126390Y-89913188D01*
X112126392Y-89913186D01*
X112160500Y-89785892D01*
X112160500Y-89654108D01*
X112126392Y-89526814D01*
X112126390Y-89526811D01*
X112126390Y-89526809D01*
X112060503Y-89412690D01*
X112060501Y-89412688D01*
X112060500Y-89412686D01*
X111967314Y-89319500D01*
X111967311Y-89319498D01*
X111967309Y-89319496D01*
X111853189Y-89253609D01*
X111853188Y-89253608D01*
X111852055Y-89253305D01*
X111851350Y-89252847D01*
X111847194Y-89251126D01*
X111847513Y-89250355D01*
X111800742Y-89219979D01*
X111778817Y-89162857D01*
X111794654Y-89103757D01*
X111842205Y-89065253D01*
X111852048Y-89062055D01*
X111873186Y-89056392D01*
X111987314Y-88990500D01*
X112080500Y-88897314D01*
X112146392Y-88783186D01*
X112180500Y-88655892D01*
X112180500Y-88524108D01*
X112146392Y-88396814D01*
X112146389Y-88396809D01*
X112144830Y-88394108D01*
X116939500Y-88394108D01*
X116939500Y-88525892D01*
X116969579Y-88638151D01*
X116973609Y-88653190D01*
X117039496Y-88767309D01*
X117039498Y-88767311D01*
X117039500Y-88767314D01*
X117132686Y-88860500D01*
X117235806Y-88920037D01*
X117276747Y-88965506D01*
X117283143Y-89026356D01*
X117252550Y-89079344D01*
X117235807Y-89091509D01*
X117152688Y-89139498D01*
X117059496Y-89232690D01*
X116993609Y-89346809D01*
X116993608Y-89346814D01*
X116959500Y-89474108D01*
X116959500Y-89605892D01*
X116972420Y-89654109D01*
X116993609Y-89733190D01*
X117059496Y-89847309D01*
X117059498Y-89847311D01*
X117059500Y-89847314D01*
X117152686Y-89940500D01*
X117152688Y-89940501D01*
X117152690Y-89940503D01*
X117266810Y-90006390D01*
X117266808Y-90006390D01*
X117266812Y-90006391D01*
X117266814Y-90006392D01*
X117394108Y-90040500D01*
X117394110Y-90040500D01*
X117525890Y-90040500D01*
X117525892Y-90040500D01*
X117653186Y-90006392D01*
X117653188Y-90006390D01*
X117653190Y-90006390D01*
X117767309Y-89940503D01*
X117767309Y-89940502D01*
X117767314Y-89940500D01*
X117860500Y-89847314D01*
X117926392Y-89733186D01*
X117960500Y-89605892D01*
X117960500Y-89474108D01*
X117926392Y-89346814D01*
X117926390Y-89346811D01*
X117926390Y-89346809D01*
X117860503Y-89232690D01*
X117860501Y-89232688D01*
X117860500Y-89232686D01*
X117767314Y-89139500D01*
X117767311Y-89139498D01*
X117767309Y-89139496D01*
X117664193Y-89079962D01*
X117623252Y-89034493D01*
X117616856Y-88973643D01*
X117647449Y-88920655D01*
X117664185Y-88908494D01*
X117747314Y-88860500D01*
X117840500Y-88767314D01*
X117906392Y-88653186D01*
X117940500Y-88525892D01*
X117940500Y-88394108D01*
X117906392Y-88266814D01*
X117906390Y-88266811D01*
X117906390Y-88266809D01*
X117840503Y-88152690D01*
X117840501Y-88152688D01*
X117840500Y-88152686D01*
X117747314Y-88059500D01*
X117747311Y-88059498D01*
X117747309Y-88059496D01*
X117633189Y-87993609D01*
X117633191Y-87993609D01*
X117567068Y-87975892D01*
X117505892Y-87959500D01*
X117374108Y-87959500D01*
X117312932Y-87975892D01*
X117246809Y-87993609D01*
X117132690Y-88059496D01*
X117039496Y-88152690D01*
X116973609Y-88266809D01*
X116973608Y-88266814D01*
X116939500Y-88394108D01*
X112144830Y-88394108D01*
X112080503Y-88282690D01*
X112080501Y-88282688D01*
X112080500Y-88282686D01*
X111987314Y-88189500D01*
X111987311Y-88189498D01*
X111987309Y-88189496D01*
X111873189Y-88123609D01*
X111873191Y-88123609D01*
X111796969Y-88103186D01*
X111745892Y-88089500D01*
X111614108Y-88089500D01*
X111563031Y-88103186D01*
X111486809Y-88123609D01*
X111372690Y-88189496D01*
X111279496Y-88282690D01*
X111213609Y-88396809D01*
X111213608Y-88396814D01*
X111179500Y-88524108D01*
X111179500Y-88655892D01*
X111209354Y-88767309D01*
X111213609Y-88783190D01*
X111279496Y-88897309D01*
X111279498Y-88897311D01*
X111279500Y-88897314D01*
X111372686Y-88990500D01*
X111372688Y-88990501D01*
X111372690Y-88990503D01*
X111486810Y-89056390D01*
X111486811Y-89056390D01*
X111486814Y-89056392D01*
X111487935Y-89056692D01*
X111488634Y-89057146D01*
X111492806Y-89058874D01*
X111492485Y-89059646D01*
X111539252Y-89090013D01*
X111561182Y-89147133D01*
X111545350Y-89206234D01*
X111497802Y-89244742D01*
X111487943Y-89247946D01*
X111466812Y-89253608D01*
X111466810Y-89253609D01*
X111352690Y-89319496D01*
X111259496Y-89412690D01*
X111193609Y-89526809D01*
X111193608Y-89526814D01*
X111159500Y-89654108D01*
X97020500Y-89654108D01*
X97020500Y-87844108D01*
X132595700Y-87844108D01*
X132595700Y-87975892D01*
X132625779Y-88088151D01*
X132629809Y-88103190D01*
X132695696Y-88217309D01*
X132695698Y-88217311D01*
X132695700Y-88217314D01*
X132788886Y-88310500D01*
X132788888Y-88310501D01*
X132788890Y-88310503D01*
X132903010Y-88376390D01*
X132903008Y-88376390D01*
X132903012Y-88376391D01*
X132903014Y-88376392D01*
X133030308Y-88410500D01*
X133030310Y-88410500D01*
X133162090Y-88410500D01*
X133162092Y-88410500D01*
X133289386Y-88376392D01*
X133289388Y-88376390D01*
X133289390Y-88376390D01*
X133403509Y-88310503D01*
X133403509Y-88310502D01*
X133403514Y-88310500D01*
X133496700Y-88217314D01*
X133496703Y-88217309D01*
X133562590Y-88103190D01*
X133562590Y-88103188D01*
X133562592Y-88103186D01*
X133596700Y-87975892D01*
X133596700Y-87844108D01*
X133562592Y-87716814D01*
X133562590Y-87716811D01*
X133562590Y-87716809D01*
X133496703Y-87602690D01*
X133496701Y-87602688D01*
X133496700Y-87602686D01*
X133403514Y-87509500D01*
X133403511Y-87509498D01*
X133403509Y-87509496D01*
X133289389Y-87443609D01*
X133289391Y-87443609D01*
X133239999Y-87430375D01*
X133162092Y-87409500D01*
X133030308Y-87409500D01*
X132952400Y-87430375D01*
X132903009Y-87443609D01*
X132788890Y-87509496D01*
X132695696Y-87602690D01*
X132629809Y-87716809D01*
X132629808Y-87716814D01*
X132595700Y-87844108D01*
X97020500Y-87844108D01*
X97020500Y-86840943D01*
X102464500Y-86840943D01*
X102464500Y-86999057D01*
X102505423Y-87151784D01*
X102584480Y-87288716D01*
X102696284Y-87400520D01*
X102833216Y-87479577D01*
X102985943Y-87520500D01*
X102985945Y-87520500D01*
X103144055Y-87520500D01*
X103144057Y-87520500D01*
X103296784Y-87479577D01*
X103433716Y-87400520D01*
X103545520Y-87288716D01*
X103624577Y-87151784D01*
X103658788Y-87024108D01*
X112169500Y-87024108D01*
X112169500Y-87155892D01*
X112199579Y-87268151D01*
X112203609Y-87283190D01*
X112269496Y-87397309D01*
X112269498Y-87397311D01*
X112269500Y-87397314D01*
X112362686Y-87490500D01*
X112362688Y-87490501D01*
X112362690Y-87490503D01*
X112476810Y-87556390D01*
X112476808Y-87556390D01*
X112476812Y-87556391D01*
X112476814Y-87556392D01*
X112604108Y-87590500D01*
X112604110Y-87590500D01*
X112735890Y-87590500D01*
X112735892Y-87590500D01*
X112863186Y-87556392D01*
X112863188Y-87556390D01*
X112863190Y-87556390D01*
X112977309Y-87490503D01*
X112977309Y-87490502D01*
X112977314Y-87490500D01*
X113070500Y-87397314D01*
X113113490Y-87322853D01*
X113136390Y-87283190D01*
X113136390Y-87283188D01*
X113136392Y-87283186D01*
X113170500Y-87155892D01*
X113170500Y-87044108D01*
X113459500Y-87044108D01*
X113459500Y-87175892D01*
X113487035Y-87278655D01*
X113493609Y-87303190D01*
X113559496Y-87417309D01*
X113559498Y-87417311D01*
X113559500Y-87417314D01*
X113652686Y-87510500D01*
X113652688Y-87510501D01*
X113652690Y-87510503D01*
X113766810Y-87576390D01*
X113766808Y-87576390D01*
X113766812Y-87576391D01*
X113766814Y-87576392D01*
X113894108Y-87610500D01*
X113894110Y-87610500D01*
X114025890Y-87610500D01*
X114025892Y-87610500D01*
X114153186Y-87576392D01*
X114153188Y-87576390D01*
X114153190Y-87576390D01*
X114267309Y-87510503D01*
X114267309Y-87510502D01*
X114267314Y-87510500D01*
X114360500Y-87417314D01*
X114415037Y-87322852D01*
X114460506Y-87281912D01*
X114521356Y-87275516D01*
X114574344Y-87306109D01*
X114586509Y-87322853D01*
X114629496Y-87397309D01*
X114629498Y-87397311D01*
X114629500Y-87397314D01*
X114722686Y-87490500D01*
X114722688Y-87490501D01*
X114722690Y-87490503D01*
X114836810Y-87556390D01*
X114836808Y-87556390D01*
X114836812Y-87556391D01*
X114836814Y-87556392D01*
X114964108Y-87590500D01*
X114964110Y-87590500D01*
X115095890Y-87590500D01*
X115095892Y-87590500D01*
X115223186Y-87556392D01*
X115223188Y-87556390D01*
X115223190Y-87556390D01*
X115337309Y-87490503D01*
X115337309Y-87490502D01*
X115337314Y-87490500D01*
X115430500Y-87397314D01*
X115473490Y-87322854D01*
X115499637Y-87277567D01*
X115501521Y-87278655D01*
X115534931Y-87239524D01*
X115594424Y-87225231D01*
X115650955Y-87248636D01*
X115682299Y-87298301D01*
X115683608Y-87303188D01*
X115683609Y-87303189D01*
X115749496Y-87417309D01*
X115749498Y-87417311D01*
X115749500Y-87417314D01*
X115842686Y-87510500D01*
X115842688Y-87510501D01*
X115842690Y-87510503D01*
X115956810Y-87576390D01*
X115956808Y-87576390D01*
X115956812Y-87576391D01*
X115956814Y-87576392D01*
X116084108Y-87610500D01*
X116084110Y-87610500D01*
X116215890Y-87610500D01*
X116215892Y-87610500D01*
X116343186Y-87576392D01*
X116343188Y-87576390D01*
X116343190Y-87576390D01*
X116457309Y-87510503D01*
X116457309Y-87510502D01*
X116457314Y-87510500D01*
X116550500Y-87417314D01*
X116550503Y-87417309D01*
X116616390Y-87303190D01*
X116616390Y-87303188D01*
X116616392Y-87303186D01*
X116650500Y-87175892D01*
X116650500Y-87044108D01*
X116616392Y-86916814D01*
X116616390Y-86916811D01*
X116616390Y-86916809D01*
X116550503Y-86802690D01*
X116550501Y-86802688D01*
X116550500Y-86802686D01*
X116457314Y-86709500D01*
X116457311Y-86709498D01*
X116457309Y-86709496D01*
X116343189Y-86643609D01*
X116343191Y-86643609D01*
X116293799Y-86630375D01*
X116215892Y-86609500D01*
X116084108Y-86609500D01*
X116006200Y-86630375D01*
X115956809Y-86643609D01*
X115842690Y-86709496D01*
X115749496Y-86802690D01*
X115680363Y-86922433D01*
X115678483Y-86921348D01*
X115645035Y-86960494D01*
X115585538Y-86974765D01*
X115529015Y-86951338D01*
X115497699Y-86901692D01*
X115496392Y-86896814D01*
X115496389Y-86896809D01*
X115430503Y-86782690D01*
X115430501Y-86782688D01*
X115430500Y-86782686D01*
X115337314Y-86689500D01*
X115337311Y-86689498D01*
X115337309Y-86689496D01*
X115223189Y-86623609D01*
X115223191Y-86623609D01*
X115170534Y-86609500D01*
X115095892Y-86589500D01*
X114964108Y-86589500D01*
X114889466Y-86609500D01*
X114836809Y-86623609D01*
X114722690Y-86689496D01*
X114629498Y-86782688D01*
X114574962Y-86877147D01*
X114529492Y-86918087D01*
X114468642Y-86924482D01*
X114415654Y-86893889D01*
X114403490Y-86877147D01*
X114360500Y-86802686D01*
X114267314Y-86709500D01*
X114267311Y-86709498D01*
X114267309Y-86709496D01*
X114153189Y-86643609D01*
X114153191Y-86643609D01*
X114103799Y-86630375D01*
X114025892Y-86609500D01*
X113894108Y-86609500D01*
X113816200Y-86630375D01*
X113766809Y-86643609D01*
X113652690Y-86709496D01*
X113559496Y-86802690D01*
X113493609Y-86916809D01*
X113493608Y-86916814D01*
X113459500Y-87044108D01*
X113170500Y-87044108D01*
X113170500Y-87024108D01*
X113136392Y-86896814D01*
X113136390Y-86896810D01*
X113136390Y-86896809D01*
X113070503Y-86782690D01*
X113070501Y-86782688D01*
X113070500Y-86782686D01*
X112977314Y-86689500D01*
X112977311Y-86689498D01*
X112977309Y-86689496D01*
X112863189Y-86623609D01*
X112863191Y-86623609D01*
X112810534Y-86609500D01*
X112735892Y-86589500D01*
X112604108Y-86589500D01*
X112529466Y-86609500D01*
X112476809Y-86623609D01*
X112362690Y-86689496D01*
X112269496Y-86782690D01*
X112203609Y-86896809D01*
X112203608Y-86896814D01*
X112169500Y-87024108D01*
X103658788Y-87024108D01*
X103665500Y-86999057D01*
X103665500Y-86840943D01*
X103624577Y-86688216D01*
X103545520Y-86551284D01*
X103433716Y-86439480D01*
X103296784Y-86360423D01*
X103144057Y-86319500D01*
X102985943Y-86319500D01*
X102833216Y-86360423D01*
X102696284Y-86439480D01*
X102584480Y-86551284D01*
X102505423Y-86688216D01*
X102464500Y-86840943D01*
X97020500Y-86840943D01*
X97020500Y-86204108D01*
X125649500Y-86204108D01*
X125649500Y-86335892D01*
X125656073Y-86360423D01*
X125683609Y-86463190D01*
X125749496Y-86577309D01*
X125749498Y-86577311D01*
X125749500Y-86577314D01*
X125842686Y-86670500D01*
X125842688Y-86670501D01*
X125842690Y-86670503D01*
X125956810Y-86736390D01*
X125956808Y-86736390D01*
X125956812Y-86736391D01*
X125956814Y-86736392D01*
X126084108Y-86770500D01*
X126084110Y-86770500D01*
X126215890Y-86770500D01*
X126215892Y-86770500D01*
X126343186Y-86736392D01*
X126343188Y-86736390D01*
X126343190Y-86736390D01*
X126457309Y-86670503D01*
X126457309Y-86670502D01*
X126457314Y-86670500D01*
X126550500Y-86577314D01*
X126550503Y-86577309D01*
X126616390Y-86463190D01*
X126616390Y-86463188D01*
X126616392Y-86463186D01*
X126650500Y-86335892D01*
X126650500Y-86204108D01*
X126616392Y-86076814D01*
X126616390Y-86076811D01*
X126616390Y-86076809D01*
X126550503Y-85962690D01*
X126550501Y-85962688D01*
X126550500Y-85962686D01*
X126457314Y-85869500D01*
X126457311Y-85869498D01*
X126457309Y-85869496D01*
X126343189Y-85803609D01*
X126343191Y-85803609D01*
X126293799Y-85790375D01*
X126215892Y-85769500D01*
X126084108Y-85769500D01*
X126006200Y-85790375D01*
X125956809Y-85803609D01*
X125842690Y-85869496D01*
X125749496Y-85962690D01*
X125683609Y-86076809D01*
X125683608Y-86076814D01*
X125649500Y-86204108D01*
X97020500Y-86204108D01*
X97020500Y-84504108D01*
X112929500Y-84504108D01*
X112929500Y-84635892D01*
X112934859Y-84655892D01*
X112963609Y-84763190D01*
X113029496Y-84877309D01*
X113029498Y-84877311D01*
X113029500Y-84877314D01*
X113122686Y-84970500D01*
X113122688Y-84970501D01*
X113122690Y-84970503D01*
X113236810Y-85036390D01*
X113236808Y-85036390D01*
X113236812Y-85036391D01*
X113236814Y-85036392D01*
X113364108Y-85070500D01*
X113364110Y-85070500D01*
X113495890Y-85070500D01*
X113495892Y-85070500D01*
X113623186Y-85036392D01*
X113623188Y-85036390D01*
X113623190Y-85036390D01*
X113737314Y-84970500D01*
X113754995Y-84952819D01*
X113809511Y-84925040D01*
X113869943Y-84934610D01*
X113895000Y-84952814D01*
X113932686Y-84990500D01*
X113932688Y-84990501D01*
X113932690Y-84990503D01*
X114046810Y-85056390D01*
X114046808Y-85056390D01*
X114046812Y-85056391D01*
X114046814Y-85056392D01*
X114174108Y-85090500D01*
X114174110Y-85090500D01*
X114305890Y-85090500D01*
X114305892Y-85090500D01*
X114433186Y-85056392D01*
X114433188Y-85056390D01*
X114433190Y-85056390D01*
X114547309Y-84990503D01*
X114547309Y-84990502D01*
X114547314Y-84990500D01*
X114609998Y-84927815D01*
X114664513Y-84900040D01*
X114724945Y-84909611D01*
X114750000Y-84927814D01*
X114812686Y-84990500D01*
X114812688Y-84990501D01*
X114812690Y-84990503D01*
X114926810Y-85056390D01*
X114926808Y-85056390D01*
X114926812Y-85056391D01*
X114926814Y-85056392D01*
X115054108Y-85090500D01*
X115054110Y-85090500D01*
X115185890Y-85090500D01*
X115185892Y-85090500D01*
X115313186Y-85056392D01*
X115313188Y-85056390D01*
X115313190Y-85056390D01*
X115427309Y-84990503D01*
X115427309Y-84990502D01*
X115427314Y-84990500D01*
X115464998Y-84952815D01*
X115519513Y-84925040D01*
X115579945Y-84934611D01*
X115605000Y-84952814D01*
X115642686Y-84990500D01*
X115642688Y-84990501D01*
X115642690Y-84990503D01*
X115756810Y-85056390D01*
X115756808Y-85056390D01*
X115756812Y-85056391D01*
X115756814Y-85056392D01*
X115884108Y-85090500D01*
X115884110Y-85090500D01*
X116015890Y-85090500D01*
X116015892Y-85090500D01*
X116143186Y-85056392D01*
X116143188Y-85056390D01*
X116143190Y-85056390D01*
X116257309Y-84990503D01*
X116257309Y-84990502D01*
X116257314Y-84990500D01*
X116350500Y-84897314D01*
X116387522Y-84833190D01*
X116416390Y-84783190D01*
X116416390Y-84783188D01*
X116416392Y-84783186D01*
X116450500Y-84655892D01*
X116450500Y-84524108D01*
X126105700Y-84524108D01*
X126105700Y-84655892D01*
X126134449Y-84763186D01*
X126139809Y-84783190D01*
X126205696Y-84897309D01*
X126205698Y-84897311D01*
X126205700Y-84897314D01*
X126298886Y-84990500D01*
X126298888Y-84990501D01*
X126298890Y-84990503D01*
X126413010Y-85056390D01*
X126413008Y-85056390D01*
X126413012Y-85056391D01*
X126413014Y-85056392D01*
X126540308Y-85090500D01*
X126540310Y-85090500D01*
X126672090Y-85090500D01*
X126672092Y-85090500D01*
X126799386Y-85056392D01*
X126799388Y-85056390D01*
X126799390Y-85056390D01*
X126913509Y-84990503D01*
X126913509Y-84990502D01*
X126913514Y-84990500D01*
X127006700Y-84897314D01*
X127043722Y-84833190D01*
X127072590Y-84783190D01*
X127072590Y-84783188D01*
X127072592Y-84783186D01*
X127106700Y-84655892D01*
X127106700Y-84574108D01*
X131085700Y-84574108D01*
X131085700Y-84705892D01*
X131101052Y-84763186D01*
X131119809Y-84833190D01*
X131185696Y-84947309D01*
X131185698Y-84947311D01*
X131185700Y-84947314D01*
X131278886Y-85040500D01*
X131278888Y-85040501D01*
X131278890Y-85040503D01*
X131393010Y-85106390D01*
X131393008Y-85106390D01*
X131393012Y-85106391D01*
X131393014Y-85106392D01*
X131520308Y-85140500D01*
X131520310Y-85140500D01*
X131652090Y-85140500D01*
X131652092Y-85140500D01*
X131779386Y-85106392D01*
X131779388Y-85106390D01*
X131779390Y-85106390D01*
X131893509Y-85040503D01*
X131893509Y-85040502D01*
X131893514Y-85040500D01*
X131986700Y-84947314D01*
X132015568Y-84897314D01*
X132052590Y-84833190D01*
X132052590Y-84833188D01*
X132052592Y-84833186D01*
X132080506Y-84729008D01*
X136979500Y-84729008D01*
X136979500Y-84860792D01*
X136992581Y-84909611D01*
X137013609Y-84988090D01*
X137079496Y-85102209D01*
X137079498Y-85102211D01*
X137079500Y-85102214D01*
X137172686Y-85195400D01*
X137172688Y-85195401D01*
X137172690Y-85195403D01*
X137286810Y-85261290D01*
X137286808Y-85261290D01*
X137286812Y-85261291D01*
X137286814Y-85261292D01*
X137414108Y-85295400D01*
X137414110Y-85295400D01*
X137545890Y-85295400D01*
X137545892Y-85295400D01*
X137673186Y-85261292D01*
X137673188Y-85261290D01*
X137673190Y-85261290D01*
X137787309Y-85195403D01*
X137787309Y-85195402D01*
X137787314Y-85195400D01*
X137880500Y-85102214D01*
X137898810Y-85070500D01*
X137946390Y-84988090D01*
X137946390Y-84988088D01*
X137946392Y-84988086D01*
X137980500Y-84860792D01*
X137980500Y-84729008D01*
X137946392Y-84601714D01*
X137946390Y-84601711D01*
X137946390Y-84601709D01*
X137880503Y-84487590D01*
X137880501Y-84487588D01*
X137880500Y-84487586D01*
X137787314Y-84394400D01*
X137787311Y-84394398D01*
X137787309Y-84394396D01*
X137673189Y-84328509D01*
X137673191Y-84328509D01*
X137623799Y-84315275D01*
X137545892Y-84294400D01*
X137414108Y-84294400D01*
X137336200Y-84315275D01*
X137286809Y-84328509D01*
X137172690Y-84394396D01*
X137079496Y-84487590D01*
X137013609Y-84601709D01*
X137004450Y-84635892D01*
X136979500Y-84729008D01*
X132080506Y-84729008D01*
X132086700Y-84705892D01*
X132086700Y-84574108D01*
X132052592Y-84446814D01*
X132052590Y-84446811D01*
X132052590Y-84446809D01*
X131986703Y-84332690D01*
X131986701Y-84332688D01*
X131986700Y-84332686D01*
X131893514Y-84239500D01*
X131893511Y-84239498D01*
X131893509Y-84239496D01*
X131779389Y-84173609D01*
X131779391Y-84173609D01*
X131729999Y-84160375D01*
X131652092Y-84139500D01*
X131520308Y-84139500D01*
X131442400Y-84160375D01*
X131393009Y-84173609D01*
X131278890Y-84239496D01*
X131185696Y-84332690D01*
X131119809Y-84446809D01*
X131119808Y-84446814D01*
X131085700Y-84574108D01*
X127106700Y-84574108D01*
X127106700Y-84524108D01*
X127072592Y-84396814D01*
X127072590Y-84396811D01*
X127072590Y-84396809D01*
X127006703Y-84282690D01*
X127006701Y-84282688D01*
X127006700Y-84282686D01*
X126913514Y-84189500D01*
X126913511Y-84189498D01*
X126913509Y-84189496D01*
X126799389Y-84123609D01*
X126799391Y-84123609D01*
X126749999Y-84110375D01*
X126672092Y-84089500D01*
X126540308Y-84089500D01*
X126462400Y-84110375D01*
X126413009Y-84123609D01*
X126298890Y-84189496D01*
X126205696Y-84282690D01*
X126139809Y-84396809D01*
X126139808Y-84396814D01*
X126105700Y-84524108D01*
X116450500Y-84524108D01*
X116416392Y-84396814D01*
X116416390Y-84396811D01*
X116416390Y-84396809D01*
X116350503Y-84282690D01*
X116350501Y-84282688D01*
X116350500Y-84282686D01*
X116257314Y-84189500D01*
X116257311Y-84189498D01*
X116257309Y-84189496D01*
X116143189Y-84123609D01*
X116143191Y-84123609D01*
X116093799Y-84110375D01*
X116015892Y-84089500D01*
X115884108Y-84089500D01*
X115806200Y-84110375D01*
X115756809Y-84123609D01*
X115642690Y-84189496D01*
X115642684Y-84189501D01*
X115605003Y-84227182D01*
X115550486Y-84254959D01*
X115490054Y-84245387D01*
X115464997Y-84227182D01*
X115427315Y-84189501D01*
X115427309Y-84189496D01*
X115313189Y-84123609D01*
X115313191Y-84123609D01*
X115263799Y-84110375D01*
X115185892Y-84089500D01*
X115054108Y-84089500D01*
X114976200Y-84110375D01*
X114926809Y-84123609D01*
X114812690Y-84189496D01*
X114812689Y-84189497D01*
X114812686Y-84189499D01*
X114812686Y-84189500D01*
X114750001Y-84252184D01*
X114695487Y-84279960D01*
X114635055Y-84270389D01*
X114609999Y-84252185D01*
X114547314Y-84189500D01*
X114547311Y-84189498D01*
X114547309Y-84189496D01*
X114433189Y-84123609D01*
X114433191Y-84123609D01*
X114383799Y-84110375D01*
X114305892Y-84089500D01*
X114174108Y-84089500D01*
X114096200Y-84110375D01*
X114046809Y-84123609D01*
X113932685Y-84189500D01*
X113914999Y-84207185D01*
X113860482Y-84234960D01*
X113800050Y-84225386D01*
X113774998Y-84207184D01*
X113737314Y-84169500D01*
X113737311Y-84169498D01*
X113737309Y-84169496D01*
X113623189Y-84103609D01*
X113623191Y-84103609D01*
X113570534Y-84089500D01*
X113495892Y-84069500D01*
X113364108Y-84069500D01*
X113289466Y-84089500D01*
X113236809Y-84103609D01*
X113122690Y-84169496D01*
X113029496Y-84262690D01*
X112963609Y-84376809D01*
X112963608Y-84376814D01*
X112929500Y-84504108D01*
X97020500Y-84504108D01*
X97020500Y-81060943D01*
X102464500Y-81060943D01*
X102464500Y-81219057D01*
X102505423Y-81371784D01*
X102584480Y-81508716D01*
X102696284Y-81620520D01*
X102833216Y-81699577D01*
X102985943Y-81740500D01*
X102985945Y-81740500D01*
X103144055Y-81740500D01*
X103144057Y-81740500D01*
X103296784Y-81699577D01*
X103433716Y-81620520D01*
X103545520Y-81508716D01*
X103624577Y-81371784D01*
X103665500Y-81219057D01*
X103665500Y-81060943D01*
X103624577Y-80908216D01*
X103545520Y-80771284D01*
X103433716Y-80659480D01*
X103296784Y-80580423D01*
X103144057Y-80539500D01*
X102985943Y-80539500D01*
X102833216Y-80580423D01*
X102696284Y-80659480D01*
X102584480Y-80771284D01*
X102505423Y-80908216D01*
X102464500Y-81060943D01*
X97020500Y-81060943D01*
X97020500Y-78729108D01*
X131000700Y-78729108D01*
X131000700Y-78860892D01*
X131021176Y-78937309D01*
X131034809Y-78988190D01*
X131100696Y-79102309D01*
X131100698Y-79102311D01*
X131100700Y-79102314D01*
X131193886Y-79195500D01*
X131193888Y-79195501D01*
X131193890Y-79195503D01*
X131308010Y-79261390D01*
X131308008Y-79261390D01*
X131308012Y-79261391D01*
X131308014Y-79261392D01*
X131435308Y-79295500D01*
X131435310Y-79295500D01*
X131567090Y-79295500D01*
X131567092Y-79295500D01*
X131694386Y-79261392D01*
X131694388Y-79261390D01*
X131694390Y-79261390D01*
X131808509Y-79195503D01*
X131808509Y-79195502D01*
X131808514Y-79195500D01*
X131901700Y-79102314D01*
X131967592Y-78988186D01*
X132001700Y-78860892D01*
X132001700Y-78729108D01*
X131967592Y-78601814D01*
X131967591Y-78601812D01*
X131967590Y-78601808D01*
X131945824Y-78564108D01*
X135009500Y-78564108D01*
X135009500Y-78695892D01*
X135039579Y-78808151D01*
X135043609Y-78823190D01*
X135109496Y-78937309D01*
X135109498Y-78937311D01*
X135109500Y-78937314D01*
X135202686Y-79030500D01*
X135202688Y-79030501D01*
X135202690Y-79030503D01*
X135316810Y-79096390D01*
X135316808Y-79096390D01*
X135316812Y-79096391D01*
X135316814Y-79096392D01*
X135444108Y-79130500D01*
X135444110Y-79130500D01*
X135575890Y-79130500D01*
X135575892Y-79130500D01*
X135703186Y-79096392D01*
X135703188Y-79096390D01*
X135703190Y-79096390D01*
X135817309Y-79030503D01*
X135817309Y-79030502D01*
X135817314Y-79030500D01*
X135910500Y-78937314D01*
X135910503Y-78937309D01*
X135976390Y-78823190D01*
X135976390Y-78823188D01*
X135976392Y-78823186D01*
X136010500Y-78695892D01*
X136010500Y-78564108D01*
X135976392Y-78436814D01*
X135976390Y-78436811D01*
X135976390Y-78436809D01*
X135910503Y-78322690D01*
X135910501Y-78322688D01*
X135910500Y-78322686D01*
X135817314Y-78229500D01*
X135817311Y-78229498D01*
X135817309Y-78229496D01*
X135703189Y-78163609D01*
X135703191Y-78163609D01*
X135653799Y-78150375D01*
X135575892Y-78129500D01*
X135444108Y-78129500D01*
X135366200Y-78150375D01*
X135316809Y-78163609D01*
X135202690Y-78229496D01*
X135109496Y-78322690D01*
X135043609Y-78436809D01*
X135043608Y-78436814D01*
X135009500Y-78564108D01*
X131945824Y-78564108D01*
X131901703Y-78487690D01*
X131901701Y-78487688D01*
X131901700Y-78487686D01*
X131808514Y-78394500D01*
X131808511Y-78394498D01*
X131808509Y-78394496D01*
X131694389Y-78328609D01*
X131694391Y-78328609D01*
X131644999Y-78315375D01*
X131567092Y-78294500D01*
X131435308Y-78294500D01*
X131357400Y-78315375D01*
X131308009Y-78328609D01*
X131193890Y-78394496D01*
X131100696Y-78487690D01*
X131034809Y-78601809D01*
X131034808Y-78601814D01*
X131000700Y-78729108D01*
X97020500Y-78729108D01*
X97020500Y-76804108D01*
X129545700Y-76804108D01*
X129545700Y-76935892D01*
X129561672Y-76995500D01*
X129579809Y-77063190D01*
X129645696Y-77177309D01*
X129645698Y-77177311D01*
X129645700Y-77177314D01*
X129738886Y-77270500D01*
X129738888Y-77270501D01*
X129738890Y-77270503D01*
X129853010Y-77336390D01*
X129853008Y-77336390D01*
X129853012Y-77336391D01*
X129853014Y-77336392D01*
X129980308Y-77370500D01*
X129980310Y-77370500D01*
X130112090Y-77370500D01*
X130112092Y-77370500D01*
X130239386Y-77336392D01*
X130239388Y-77336390D01*
X130239390Y-77336390D01*
X130353509Y-77270503D01*
X130353509Y-77270502D01*
X130353514Y-77270500D01*
X130446700Y-77177314D01*
X130446703Y-77177309D01*
X130512590Y-77063190D01*
X130512590Y-77063188D01*
X130512592Y-77063186D01*
X130546700Y-76935892D01*
X130546700Y-76804108D01*
X130512592Y-76676814D01*
X130512590Y-76676811D01*
X130512590Y-76676809D01*
X130452148Y-76572121D01*
X130452147Y-76572120D01*
X130446701Y-76562688D01*
X130446700Y-76562686D01*
X130413122Y-76529108D01*
X136184500Y-76529108D01*
X136184500Y-76660892D01*
X136214579Y-76773151D01*
X136218609Y-76788190D01*
X136284496Y-76902309D01*
X136284498Y-76902311D01*
X136284500Y-76902314D01*
X136377686Y-76995500D01*
X136377688Y-76995501D01*
X136377690Y-76995503D01*
X136491810Y-77061390D01*
X136491808Y-77061390D01*
X136491812Y-77061391D01*
X136491814Y-77061392D01*
X136619108Y-77095500D01*
X136619110Y-77095500D01*
X136750890Y-77095500D01*
X136750892Y-77095500D01*
X136878186Y-77061392D01*
X136878188Y-77061390D01*
X136878190Y-77061390D01*
X136992309Y-76995503D01*
X136992309Y-76995502D01*
X136992314Y-76995500D01*
X137085500Y-76902314D01*
X137142199Y-76804109D01*
X137151390Y-76788190D01*
X137151390Y-76788188D01*
X137151392Y-76788186D01*
X137185500Y-76660892D01*
X137185500Y-76529108D01*
X137151392Y-76401814D01*
X137151390Y-76401811D01*
X137151390Y-76401809D01*
X137085503Y-76287690D01*
X137085501Y-76287688D01*
X137085500Y-76287686D01*
X136992314Y-76194500D01*
X136992311Y-76194498D01*
X136992309Y-76194496D01*
X136878189Y-76128609D01*
X136878191Y-76128609D01*
X136828799Y-76115375D01*
X136750892Y-76094500D01*
X136619108Y-76094500D01*
X136541200Y-76115375D01*
X136491809Y-76128609D01*
X136377690Y-76194496D01*
X136284496Y-76287690D01*
X136218609Y-76401809D01*
X136218608Y-76401814D01*
X136184500Y-76529108D01*
X130413122Y-76529108D01*
X130353514Y-76469500D01*
X130353511Y-76469498D01*
X130353509Y-76469496D01*
X130239389Y-76403609D01*
X130239391Y-76403609D01*
X130189999Y-76390375D01*
X130112092Y-76369500D01*
X129980308Y-76369500D01*
X129902400Y-76390375D01*
X129853009Y-76403609D01*
X129738890Y-76469496D01*
X129645696Y-76562690D01*
X129579809Y-76676809D01*
X129579808Y-76676814D01*
X129545700Y-76804108D01*
X97020500Y-76804108D01*
X97020500Y-75204108D01*
X118609500Y-75204108D01*
X118609500Y-75335892D01*
X118639579Y-75448151D01*
X118643609Y-75463190D01*
X118709496Y-75577309D01*
X118709498Y-75577311D01*
X118709500Y-75577314D01*
X118802686Y-75670500D01*
X118802688Y-75670501D01*
X118802690Y-75670503D01*
X118916810Y-75736390D01*
X118916808Y-75736390D01*
X118916812Y-75736391D01*
X118916814Y-75736392D01*
X119044108Y-75770500D01*
X119044110Y-75770500D01*
X119175890Y-75770500D01*
X119175892Y-75770500D01*
X119303186Y-75736392D01*
X119303188Y-75736390D01*
X119303190Y-75736390D01*
X119417309Y-75670503D01*
X119417309Y-75670502D01*
X119417314Y-75670500D01*
X119510500Y-75577314D01*
X119576392Y-75463186D01*
X119610500Y-75335892D01*
X119610500Y-75204108D01*
X119576392Y-75076814D01*
X119576390Y-75076811D01*
X119576390Y-75076809D01*
X119510503Y-74962690D01*
X119510501Y-74962688D01*
X119510500Y-74962686D01*
X119417314Y-74869500D01*
X119417311Y-74869498D01*
X119417309Y-74869496D01*
X119303189Y-74803609D01*
X119303191Y-74803609D01*
X119253799Y-74790375D01*
X119175892Y-74769500D01*
X119044108Y-74769500D01*
X118966200Y-74790375D01*
X118916809Y-74803609D01*
X118802690Y-74869496D01*
X118709496Y-74962690D01*
X118643609Y-75076809D01*
X118643608Y-75076814D01*
X118609500Y-75204108D01*
X97020500Y-75204108D01*
X97020500Y-73714108D01*
X118699500Y-73714108D01*
X118699500Y-73845892D01*
X118729579Y-73958151D01*
X118733609Y-73973190D01*
X118799496Y-74087309D01*
X118799498Y-74087311D01*
X118799500Y-74087314D01*
X118892686Y-74180500D01*
X118892688Y-74180501D01*
X118892690Y-74180503D01*
X119006810Y-74246390D01*
X119006808Y-74246390D01*
X119006812Y-74246391D01*
X119006814Y-74246392D01*
X119134108Y-74280500D01*
X119134110Y-74280500D01*
X119265890Y-74280500D01*
X119265892Y-74280500D01*
X119393186Y-74246392D01*
X119393188Y-74246390D01*
X119393190Y-74246390D01*
X119507309Y-74180503D01*
X119507309Y-74180502D01*
X119507314Y-74180500D01*
X119600500Y-74087314D01*
X119666392Y-73973186D01*
X119700500Y-73845892D01*
X119700500Y-73714108D01*
X119666392Y-73586814D01*
X119666390Y-73586811D01*
X119666390Y-73586809D01*
X119600503Y-73472690D01*
X119600501Y-73472688D01*
X119600500Y-73472686D01*
X119507314Y-73379500D01*
X119507311Y-73379498D01*
X119507309Y-73379496D01*
X119393189Y-73313609D01*
X119393191Y-73313609D01*
X119343799Y-73300375D01*
X119265892Y-73279500D01*
X119134108Y-73279500D01*
X119056200Y-73300375D01*
X119006809Y-73313609D01*
X118892690Y-73379496D01*
X118799496Y-73472690D01*
X118733609Y-73586809D01*
X118733608Y-73586814D01*
X118699500Y-73714108D01*
X97020500Y-73714108D01*
X97020500Y-60134108D01*
X125659500Y-60134108D01*
X125659500Y-60265892D01*
X125689579Y-60378151D01*
X125693609Y-60393190D01*
X125759496Y-60507309D01*
X125759498Y-60507311D01*
X125759500Y-60507314D01*
X125852686Y-60600500D01*
X125852688Y-60600501D01*
X125852690Y-60600503D01*
X125966810Y-60666390D01*
X125966808Y-60666390D01*
X125966812Y-60666391D01*
X125966814Y-60666392D01*
X126094108Y-60700500D01*
X126094110Y-60700500D01*
X126225890Y-60700500D01*
X126225892Y-60700500D01*
X126353186Y-60666392D01*
X126353188Y-60666390D01*
X126353190Y-60666390D01*
X126467309Y-60600503D01*
X126467309Y-60600502D01*
X126467314Y-60600500D01*
X126560500Y-60507314D01*
X126626392Y-60393186D01*
X126660500Y-60265892D01*
X126660500Y-60134108D01*
X126626392Y-60006814D01*
X126626390Y-60006811D01*
X126626390Y-60006809D01*
X126560503Y-59892690D01*
X126560501Y-59892688D01*
X126560500Y-59892686D01*
X126467314Y-59799500D01*
X126467311Y-59799498D01*
X126467309Y-59799496D01*
X126353189Y-59733609D01*
X126353191Y-59733609D01*
X126303799Y-59720375D01*
X126225892Y-59699500D01*
X126094108Y-59699500D01*
X126016200Y-59720375D01*
X125966809Y-59733609D01*
X125852690Y-59799496D01*
X125759496Y-59892690D01*
X125693609Y-60006809D01*
X125693608Y-60006814D01*
X125659500Y-60134108D01*
X97020500Y-60134108D01*
X97020500Y-58286532D01*
X111254500Y-58286532D01*
X111254500Y-58493467D01*
X111294869Y-58696418D01*
X111374058Y-58887597D01*
X111489020Y-59059651D01*
X111489023Y-59059655D01*
X111635345Y-59205977D01*
X111807402Y-59320941D01*
X111998580Y-59400130D01*
X112201535Y-59440500D01*
X112201536Y-59440500D01*
X112408464Y-59440500D01*
X112408465Y-59440500D01*
X112611420Y-59400130D01*
X112802598Y-59320941D01*
X112974655Y-59205977D01*
X113120977Y-59059655D01*
X113235941Y-58887598D01*
X113315130Y-58696420D01*
X113355500Y-58493465D01*
X113355500Y-58286535D01*
X113315130Y-58083580D01*
X113235941Y-57892402D01*
X113120977Y-57720345D01*
X112974655Y-57574023D01*
X112974651Y-57574020D01*
X112894182Y-57520253D01*
X113794500Y-57520253D01*
X113794500Y-59259746D01*
X113794501Y-59259758D01*
X113806132Y-59318227D01*
X113806134Y-59318233D01*
X113850445Y-59384548D01*
X113850448Y-59384552D01*
X113916769Y-59428867D01*
X113961231Y-59437711D01*
X113975241Y-59440498D01*
X113975246Y-59440498D01*
X113975252Y-59440500D01*
X113975253Y-59440500D01*
X115714747Y-59440500D01*
X115714748Y-59440500D01*
X115773231Y-59428867D01*
X115839552Y-59384552D01*
X115883867Y-59318231D01*
X115895500Y-59259748D01*
X115895500Y-57530253D01*
X129909500Y-57530253D01*
X129909500Y-59269746D01*
X129909501Y-59269758D01*
X129921132Y-59328227D01*
X129921134Y-59328233D01*
X129958763Y-59384548D01*
X129965448Y-59394552D01*
X130031769Y-59438867D01*
X130076231Y-59447711D01*
X130090241Y-59450498D01*
X130090246Y-59450498D01*
X130090252Y-59450500D01*
X130090253Y-59450500D01*
X131829747Y-59450500D01*
X131829748Y-59450500D01*
X131888231Y-59438867D01*
X131954552Y-59394552D01*
X131998867Y-59328231D01*
X132010500Y-59269748D01*
X132010500Y-58296532D01*
X132449500Y-58296532D01*
X132449500Y-58503467D01*
X132489869Y-58706418D01*
X132569058Y-58897597D01*
X132677341Y-59059655D01*
X132684023Y-59069655D01*
X132830345Y-59215977D01*
X133002402Y-59330941D01*
X133193580Y-59410130D01*
X133396535Y-59450500D01*
X133396536Y-59450500D01*
X133603464Y-59450500D01*
X133603465Y-59450500D01*
X133806420Y-59410130D01*
X133997598Y-59330941D01*
X134169655Y-59215977D01*
X134315977Y-59069655D01*
X134430941Y-58897598D01*
X134510130Y-58706420D01*
X134550500Y-58503465D01*
X134550500Y-58296535D01*
X134550499Y-58296532D01*
X134989500Y-58296532D01*
X134989500Y-58503467D01*
X135029869Y-58706418D01*
X135109058Y-58897597D01*
X135217341Y-59059655D01*
X135224023Y-59069655D01*
X135370345Y-59215977D01*
X135542402Y-59330941D01*
X135733580Y-59410130D01*
X135936535Y-59450500D01*
X135936536Y-59450500D01*
X136143464Y-59450500D01*
X136143465Y-59450500D01*
X136346420Y-59410130D01*
X136537598Y-59330941D01*
X136709655Y-59215977D01*
X136855977Y-59069655D01*
X136970941Y-58897598D01*
X137050130Y-58706420D01*
X137090500Y-58503465D01*
X137090500Y-58296535D01*
X137050130Y-58093580D01*
X136970941Y-57902402D01*
X136855977Y-57730345D01*
X136709655Y-57584023D01*
X136694689Y-57574023D01*
X136537597Y-57469058D01*
X136346418Y-57389869D01*
X136143467Y-57349500D01*
X136143465Y-57349500D01*
X135936535Y-57349500D01*
X135936532Y-57349500D01*
X135733581Y-57389869D01*
X135542402Y-57469058D01*
X135370348Y-57584020D01*
X135224020Y-57730348D01*
X135109058Y-57902402D01*
X135029869Y-58093581D01*
X134989500Y-58296532D01*
X134550499Y-58296532D01*
X134510130Y-58093580D01*
X134430941Y-57902402D01*
X134315977Y-57730345D01*
X134169655Y-57584023D01*
X134154689Y-57574023D01*
X133997597Y-57469058D01*
X133806418Y-57389869D01*
X133603467Y-57349500D01*
X133603465Y-57349500D01*
X133396535Y-57349500D01*
X133396532Y-57349500D01*
X133193581Y-57389869D01*
X133002402Y-57469058D01*
X132830348Y-57584020D01*
X132684020Y-57730348D01*
X132569058Y-57902402D01*
X132489869Y-58093581D01*
X132449500Y-58296532D01*
X132010500Y-58296532D01*
X132010500Y-57530252D01*
X131998867Y-57471769D01*
X131954552Y-57405448D01*
X131939591Y-57395451D01*
X131888233Y-57361134D01*
X131888231Y-57361133D01*
X131888228Y-57361132D01*
X131888227Y-57361132D01*
X131829758Y-57349501D01*
X131829748Y-57349500D01*
X130090252Y-57349500D01*
X130090251Y-57349500D01*
X130090241Y-57349501D01*
X130031772Y-57361132D01*
X130031766Y-57361134D01*
X129965451Y-57405445D01*
X129965445Y-57405451D01*
X129921134Y-57471766D01*
X129921132Y-57471772D01*
X129909501Y-57530241D01*
X129909500Y-57530253D01*
X115895500Y-57530253D01*
X115895500Y-57520252D01*
X115883867Y-57461769D01*
X115839552Y-57395448D01*
X115839548Y-57395445D01*
X115773233Y-57351134D01*
X115773231Y-57351133D01*
X115773228Y-57351132D01*
X115773227Y-57351132D01*
X115714758Y-57339501D01*
X115714748Y-57339500D01*
X113975252Y-57339500D01*
X113975251Y-57339500D01*
X113975241Y-57339501D01*
X113916772Y-57351132D01*
X113916766Y-57351134D01*
X113850451Y-57395445D01*
X113850445Y-57395451D01*
X113806134Y-57461766D01*
X113806132Y-57461772D01*
X113794501Y-57520241D01*
X113794500Y-57520253D01*
X112894182Y-57520253D01*
X112802597Y-57459058D01*
X112611418Y-57379869D01*
X112408467Y-57339500D01*
X112408465Y-57339500D01*
X112201535Y-57339500D01*
X112201532Y-57339500D01*
X111998581Y-57379869D01*
X111807402Y-57459058D01*
X111635348Y-57574020D01*
X111489020Y-57720348D01*
X111374058Y-57892402D01*
X111294869Y-58083581D01*
X111254500Y-58286532D01*
X97020500Y-58286532D01*
X97020500Y-56479500D01*
X97039407Y-56421309D01*
X97088907Y-56385345D01*
X97119500Y-56380500D01*
X141640500Y-56380500D01*
X141698691Y-56399407D01*
G37*
%TD.AperFunction*%
%TD*%
M02*
